<svg width="21" height="32" viewBox="0 0 21 32" fill="none" xmlns="http://www.w3.org/2000/svg">
<path d="M16.9746 7.80631L17.2788 5.92375L15.4423 5.48739L15.0093 3.62798L13.1447 3.93521L12.0402 2.38304L10.4308 3.38933L8.82305 2.38304L7.71765 3.93611L5.85311 3.62888L5.42006 5.48828L3.58357 5.92464L3.88688 7.8072L2.3572 8.92035L3.34952 10.5393L2.3572 12.1601L3.88688 13.2714L3.58357 15.154L5.42006 15.5904L5.85311 17.4507L7.71765 17.1434L8.82218 18.6947L10.4308 17.6884L12.0393 18.6947L13.1447 17.1434L15.0093 17.4507L15.4423 15.5904L17.2788 15.154L16.9746 13.2714L18.5052 12.1592L17.5129 10.5393L18.5052 8.91946L16.9746 7.80631ZM11.4573 20.4214L14.0476 28.0247L15.1636 26.3238L17.6496 26.9561L14.7936 19.2175L13.931 19.0759L12.5057 21.0778L11.4573 20.4214ZM16.5021 18.774L20.4644 29.5065L15.9376 28.3569L13.5471 31.9991L10.3606 22.6495L7.17503 32L4.78452 28.3569L0.257723 29.5057L4.30589 18.5415L3.96402 17.0722L1.58841 16.5085L1.98113 14.0747L0 12.6347L1.28423 10.5384L0 8.44214L1.98113 7.00217L1.58841 4.56927L3.96402 4.00468L4.52242 1.60472L6.93133 2.001L8.35582 0L10.4316 1.29749L12.5057 0L13.931 2.001L16.34 1.60472L16.8984 4.00468L19.274 4.56927L18.8812 7.00217L20.8633 8.44214L19.5781 10.5384L20.8633 12.6347L18.8821 14.0747L19.2748 16.5085L16.8992 17.0731L16.5021 18.774ZM9.22717 20.5328L8.35582 21.0778L6.93133 19.0759L5.91885 19.2424L3.07163 26.9561L5.55857 26.3238L6.67449 28.0247L9.22717 20.5328ZM10.4308 16.6545C12.0582 16.6545 13.619 15.9978 14.7697 14.8287C15.9205 13.6597 16.567 12.0741 16.567 10.4209C16.567 8.76762 15.9205 7.18206 14.7697 6.01303C13.619 4.84399 12.0582 4.18723 10.4308 4.18723C8.80332 4.18723 7.24254 4.84399 6.09177 6.01303C4.941 7.18206 4.2945 8.76762 4.2945 10.4209C4.2945 12.0741 4.941 13.6597 6.09177 14.8287C7.24254 15.9978 8.80332 16.6545 10.4308 16.6545ZM10.4308 14.8735C9.2683 14.8735 8.15345 14.4044 7.33148 13.5694C6.5095 12.7343 6.04771 11.6018 6.04771 10.4209C6.04771 9.23998 6.5095 8.10744 7.33148 7.27241C8.15345 6.43739 9.2683 5.96828 10.4308 5.96828C11.5932 5.96828 12.708 6.43739 13.53 7.27241C14.352 8.10744 14.8138 9.23998 14.8138 10.4209C14.8138 11.6018 14.352 12.7343 13.53 13.5694C12.708 14.4044 11.5932 14.8735 10.4308 14.8735ZM10.4308 6.8588C9.50079 6.8588 8.60891 7.23409 7.95133 7.90211C7.29375 8.57013 6.92432 9.47616 6.92432 10.4209H8.67754C8.67754 9.94852 8.86225 9.49551 9.19104 9.1615C9.51983 8.82748 9.96577 8.63984 10.4308 8.63984V6.8588Z" fill="#8C0014"/>
</svg>
