<svg width="30" height="32" viewBox="0 0 30 32" fill="none" xmlns="http://www.w3.org/2000/svg">
<g clip-path="url(#clip0_0_56)">
<path d="M28.1818 5.48571V1.82857H13.6364V20.1143H28.1818V7.31429H13.6364V5.48571H28.1818ZM15.0245 21.9429H11.8182V0H30V21.9429H16.8436C16.7709 25.8944 14.0409 27.883 9.09091 27.7275H8.18182V28.0805C8.18182 29.4098 7.31182 30.2053 5.90909 30.2418H4.09091V31.1561H2.27273V29.5561H0V27.7275H2.27273V26.1275H0V24.299H2.27273V22.9275H4.09091V23.8418H5.93273C7.27545 23.8766 8.13546 24.6318 8.18 25.899H9.11909C13.12 26.0251 14.9564 24.7653 15.0245 21.9429ZM4.09091 25.6704V28.4133H5.88545C6.32455 28.4023 6.36364 28.3666 6.36364 28.0805V26.0023C6.36364 25.717 6.32455 25.6814 5.90909 25.6704H4.09091ZM20.9091 19.2C19.4625 19.2 18.0751 18.622 17.0521 17.5933C16.0292 16.5645 15.4545 15.1692 15.4545 13.7143C15.4545 12.2594 16.0292 10.8641 17.0521 9.8353C18.0751 8.80653 19.4625 8.22857 20.9091 8.22857C22.3557 8.22857 23.7431 8.80653 24.766 9.8353C25.789 10.8641 26.3636 12.2594 26.3636 13.7143C26.3636 15.1692 25.789 16.5645 24.766 17.5933C23.7431 18.622 22.3557 19.2 20.9091 19.2ZM20.9091 17.3714C21.8735 17.3714 22.7984 16.9861 23.4804 16.3003C24.1623 15.6144 24.5455 14.6842 24.5455 13.7143C24.5455 12.7444 24.1623 11.8141 23.4804 11.1283C22.7984 10.4424 21.8735 10.0571 20.9091 10.0571C19.9447 10.0571 19.0197 10.4424 18.3378 11.1283C17.6558 11.8141 17.2727 12.7444 17.2727 13.7143C17.2727 14.6842 17.6558 15.6144 18.3378 16.3003C19.0197 16.9861 19.9447 17.3714 20.9091 17.3714ZM20.9091 16.4571V14.6286C21.1502 14.6286 21.3814 14.5322 21.5519 14.3608C21.7224 14.1893 21.8182 13.9568 21.8182 13.7143H23.6364C23.6364 14.4417 23.349 15.1394 22.8376 15.6538C22.3261 16.1682 21.6324 16.4571 20.9091 16.4571ZM14.5455 4.57143V2.74286H17.2727V4.57143H14.5455ZM25.4545 4.57143C25.2134 4.57143 24.9822 4.4751 24.8117 4.30364C24.6412 4.13218 24.5455 3.89963 24.5455 3.65714C24.5455 3.41466 24.6412 3.18211 24.8117 3.01064C24.9822 2.83918 25.2134 2.74286 25.4545 2.74286C25.6957 2.74286 25.9269 2.83918 26.0974 3.01064C26.2679 3.18211 26.3636 3.41466 26.3636 3.65714C26.3636 3.89963 26.2679 4.13218 26.0974 4.30364C25.9269 4.4751 25.6957 4.57143 25.4545 4.57143ZM22.7273 4.57143C22.4862 4.57143 22.2549 4.4751 22.0844 4.30364C21.914 4.13218 21.8182 3.89963 21.8182 3.65714C21.8182 3.41466 21.914 3.18211 22.0844 3.01064C22.2549 2.83918 22.4862 2.74286 22.7273 2.74286C22.9684 2.74286 23.1996 2.83918 23.3701 3.01064C23.5406 3.18211 23.6364 3.41466 23.6364 3.65714C23.6364 3.89963 23.5406 4.13218 23.3701 4.30364C23.1996 4.4751 22.9684 4.57143 22.7273 4.57143Z" fill="#8C0014"/>
</g>
<defs>
<clipPath id="clip0_0_56">
<rect width="30" height="32" fill="white"/>
</clipPath>
</defs>
</svg>
