<svg width="72" height="32" viewBox="0 0 72 32" fill="none" xmlns="http://www.w3.org/2000/svg">
<path d="M8.89797 19.086C8.56589 18.8741 8.20796 18.7057 7.83297 18.585C7.45791 18.4656 7.06658 18.4052 6.67297 18.406C6.42816 18.4039 6.18401 18.4318 5.94597 18.489C5.74597 18.536 5.55397 18.617 5.38097 18.729C5.23331 18.8253 5.10869 18.953 5.01597 19.103C4.92823 19.2519 4.88325 19.4222 4.88597 19.595C4.87904 19.7483 4.91804 19.9001 4.99797 20.031C5.08073 20.1553 5.19311 20.257 5.32497 20.327C5.48764 20.417 5.65997 20.4837 5.84197 20.527C6.06997 20.585 6.30031 20.63 6.53297 20.662L7.08097 20.736C7.39897 20.7813 7.71231 20.8513 8.02097 20.946C8.31097 21.033 8.58797 21.166 8.83697 21.342C9.07497 21.509 9.27297 21.728 9.41597 21.982C9.56797 22.27 9.64297 22.592 9.63297 22.918C9.63998 23.2913 9.55188 23.6602 9.37697 23.99C9.20697 24.3 8.97097 24.567 8.68497 24.773C8.37897 24.993 8.03497 25.157 7.67197 25.257C7.27473 25.369 6.8637 25.4245 6.45097 25.422C6.17125 25.4203 5.89207 25.3969 5.61597 25.352C5.32141 25.307 5.0306 25.2402 4.74597 25.152C4.47626 25.0628 4.21465 24.9507 3.96397 24.817C3.71555 24.6898 3.48324 24.5334 3.27197 24.351L3.96397 23.328C4.11397 23.4633 4.27764 23.5793 4.45497 23.676C4.86197 23.899 5.30297 24.056 5.75897 24.138C5.99031 24.1807 6.22364 24.2023 6.45897 24.203C6.70167 24.2058 6.94389 24.181 7.18097 24.129C7.38897 24.083 7.58464 24.0063 7.76797 23.899C7.92497 23.805 8.05997 23.679 8.16397 23.528C8.26291 23.3803 8.31422 23.2058 8.31097 23.028C8.31425 22.8805 8.27508 22.7352 8.19814 22.6093C8.1212 22.4835 8.00973 22.3823 7.87697 22.318C7.44914 22.1185 6.99006 21.9943 6.51997 21.951L5.90297 21.864C5.60747 21.8221 5.3163 21.7538 5.03297 21.66C4.7612 21.5704 4.50684 21.4347 4.28097 21.259C4.05639 21.0854 3.87358 20.8636 3.74597 20.61C3.59953 20.3185 3.52511 19.9962 3.52897 19.67C3.5217 19.3018 3.60697 18.9377 3.77697 18.611C3.93973 18.3034 4.17018 18.0367 4.45097 17.831C4.75097 17.613 5.08797 17.451 5.44597 17.352C5.84198 17.239 6.25217 17.1834 6.66397 17.187C7.19621 17.1796 7.72622 17.2573 8.23397 17.417C8.6945 17.567 9.13277 17.7782 9.53697 18.045L8.89797 19.086ZM13.224 19.696C13.5812 19.6931 13.9353 19.764 14.264 19.904C14.572 20.038 14.848 20.237 15.072 20.488C15.304 20.752 15.482 21.058 15.598 21.39C15.729 21.763 15.794 22.157 15.789 22.552V22.997H11.755C11.784 23.218 11.855 23.433 11.963 23.628C12.057 23.796 12.183 23.944 12.333 24.064C12.477 24.176 12.641 24.26 12.816 24.312C12.9973 24.3653 13.1826 24.3913 13.372 24.39C13.6511 24.3872 13.9275 24.3358 14.189 24.238C14.462 24.135 14.716 23.988 14.942 23.802L15.528 24.652C15.221 24.922 14.862 25.125 14.472 25.248C14.09 25.3631 13.6929 25.4204 13.294 25.418C12.9103 25.4221 12.5294 25.3525 12.172 25.213C11.8415 25.0807 11.5423 24.8807 11.2938 24.6258C11.0453 24.3709 10.8529 24.0668 10.729 23.733C10.5875 23.3573 10.5179 22.9584 10.524 22.557C10.5202 22.1605 10.588 21.7665 10.724 21.394C10.8477 21.0581 11.0371 20.7501 11.281 20.488C11.526 20.234 11.822 20.035 12.151 19.904C12.4912 19.7631 12.8558 19.6908 13.224 19.691V19.696ZM13.203 20.754C13.0099 20.7493 12.8177 20.7819 12.637 20.85C12.475 20.91 12.327 21.003 12.203 21.124C12.0809 21.2508 11.982 21.398 11.911 21.559C11.8324 21.7306 11.7786 21.9124 11.751 22.099H14.568C14.5342 21.7312 14.3815 21.3843 14.133 21.111C14.0102 20.9899 13.8639 20.8953 13.703 20.833C13.5422 20.7707 13.3703 20.7421 13.198 20.749L13.203 20.754ZM19.503 19.695C19.893 19.692 20.28 19.765 20.641 19.913C20.979 20.057 21.277 20.279 21.511 20.563L20.75 21.373C20.5749 21.1962 20.3722 21.0489 20.15 20.937C19.9287 20.8379 19.6884 20.7887 19.446 20.793C19.2279 20.7913 19.0118 20.8342 18.811 20.919C18.62 21.009 18.449 21.139 18.311 21.299C18.1637 21.4583 18.0483 21.6443 17.971 21.847C17.8073 22.3045 17.8073 22.8045 17.971 23.262C18.047 23.467 18.163 23.655 18.311 23.815C18.4538 23.9682 18.6272 24.0899 18.82 24.172C19.0391 24.2621 19.2748 24.3049 19.5116 24.2975C19.7484 24.2901 19.9809 24.2327 20.194 24.129C20.4146 24.025 20.6146 23.89 20.794 23.724L21.528 24.564C21.284 24.848 20.978 25.07 20.633 25.214C20.273 25.361 19.887 25.435 19.498 25.431C19.096 25.437 18.698 25.363 18.324 25.213C17.9847 25.0777 17.6777 24.8724 17.423 24.6105C17.1683 24.3486 16.9717 24.036 16.846 23.693C16.5733 22.9599 16.5733 22.1531 16.846 21.42C16.9718 21.0807 17.1671 20.7714 17.4194 20.5119C17.6717 20.2524 17.9753 20.0484 18.311 19.913C18.6875 19.7593 19.0913 19.6838 19.498 19.691L19.503 19.695ZM27.611 22.97C27.621 23.354 27.547 23.734 27.393 24.085C27.263 24.378 27.07 24.638 26.828 24.847C26.592 25.046 26.318 25.194 26.024 25.283C25.4176 25.4692 24.7693 25.4692 24.163 25.283C23.8667 25.1936 23.5916 25.0453 23.354 24.847C23.11 24.6394 22.9167 24.3788 22.789 24.085C22.6398 23.7326 22.5672 23.3526 22.576 22.97V19.835H23.767V22.883C23.761 23.1117 23.7943 23.334 23.867 23.55C23.927 23.714 24.024 23.863 24.15 23.985C24.273 24.101 24.422 24.186 24.585 24.233C24.925 24.336 25.288 24.336 25.628 24.233C25.7939 24.1855 25.9458 24.0986 26.0708 23.9796C26.1958 23.8607 26.2902 23.7133 26.346 23.55C26.419 23.335 26.454 23.11 26.45 22.883V19.835H27.641L27.611 22.97ZM31.937 19.696C32.1016 19.6947 32.265 19.7077 32.427 19.735C32.577 19.759 32.7223 19.798 32.863 19.852L32.58 21.028C32.4423 20.9592 32.296 20.9094 32.145 20.88C31.9921 20.8469 31.8363 20.8295 31.68 20.828C31.5014 20.8264 31.3243 20.859 31.158 20.924C31.0022 20.986 30.8626 21.0828 30.75 21.207C30.6305 21.3407 30.5399 21.4976 30.484 21.668C30.4173 21.8693 30.3856 22.0757 30.389 22.287V25.279H29.18V19.835H30.354V20.449C30.521 20.199 30.754 19.999 31.028 19.874C31.313 19.7498 31.6211 19.6874 31.932 19.691L31.937 19.696ZM35.915 19.696C36.2719 19.6933 36.6256 19.7641 36.954 19.904C37.262 20.038 37.538 20.237 37.762 20.488C38.002 20.75 38.188 21.056 38.31 21.39C38.441 21.763 38.506 22.157 38.501 22.552V22.997H34.441C34.47 23.218 34.541 23.433 34.65 23.628C34.743 23.796 34.869 23.944 35.019 24.064C35.163 24.176 35.327 24.26 35.502 24.312C35.682 24.365 35.87 24.392 36.058 24.39C36.3374 24.3873 36.6142 24.3359 36.876 24.238C37.148 24.135 37.403 23.988 37.628 23.802L38.218 24.647C37.912 24.917 37.552 25.12 37.162 25.244C36.78 25.3591 36.3829 25.4164 35.984 25.414C35.6003 25.4181 35.2194 25.3485 34.862 25.209C34.5315 25.0767 34.2323 24.8767 33.9838 24.6218C33.7353 24.3669 33.5429 24.0628 33.419 23.729C33.2777 23.353 33.2085 22.9537 33.215 22.552C33.211 22.156 33.278 21.762 33.415 21.39C33.5361 21.0548 33.7223 20.7469 33.963 20.484C34.208 20.229 34.504 20.03 34.833 19.9C35.174 19.76 35.541 19.69 35.91 19.691L35.915 19.696ZM35.893 20.754C35.7002 20.7494 35.5084 20.782 35.328 20.85C35.1649 20.9088 35.0165 21.0023 34.893 21.124C34.7712 21.2508 34.6727 21.3981 34.602 21.559C34.5231 21.7305 34.4689 21.9123 34.441 22.099H37.267C37.2332 21.7312 37.0805 21.3843 36.832 21.111C36.7083 20.9889 36.5606 20.8937 36.3983 20.8314C36.236 20.7691 36.0626 20.741 35.889 20.749L35.893 20.754ZM43.593 17.161C43.9376 17.1603 44.278 17.198 44.614 17.274C44.934 17.3473 45.24 17.4577 45.532 17.605C45.8113 17.747 46.068 17.9227 46.302 18.132C46.528 18.334 46.722 18.569 46.88 18.829L45.81 19.543C45.5633 19.1789 45.2286 18.883 44.837 18.6828C44.4454 18.4826 44.0096 18.3847 43.57 18.398C43.1867 18.3955 42.8065 18.4664 42.45 18.607C42.1227 18.743 41.8266 18.9444 41.58 19.199C41.3243 19.4611 41.1246 19.7724 40.993 20.114C40.709 20.8719 40.709 21.7071 40.993 22.465C41.125 22.806 41.325 23.117 41.58 23.38C41.826 23.634 42.122 23.836 42.45 23.972C42.806 24.114 43.187 24.185 43.57 24.182C44.0051 24.1922 44.4358 24.093 44.8227 23.8934C45.2095 23.6939 45.54 23.4005 45.784 23.04L46.827 23.807C46.6575 24.0559 46.4558 24.2812 46.227 24.477C46.003 24.6809 45.7548 24.8566 45.488 25C45.2035 25.1426 44.903 25.2507 44.593 25.322C43.6997 25.5204 42.7678 25.4508 41.914 25.122C41.4212 24.9284 40.9738 24.635 40.5998 24.2601C40.2259 23.8853 39.9335 23.4372 39.741 22.944C39.333 21.8846 39.333 20.7114 39.741 19.652C39.9335 19.1588 40.2259 18.7107 40.5998 18.3359C40.9738 17.9611 41.4212 17.6676 41.914 17.474C42.4478 17.261 43.0182 17.1547 43.593 17.161ZM50.593 19.678C50.9916 19.6726 51.3873 19.7467 51.757 19.896C52.102 20.034 52.417 20.238 52.684 20.496C52.946 20.755 53.154 21.063 53.297 21.403C53.5919 22.132 53.5919 22.947 53.297 23.676C53.1545 24.0176 52.9447 24.3271 52.6801 24.586C52.4155 24.8449 52.1016 25.0479 51.757 25.183C51.0075 25.4739 50.1764 25.4739 49.427 25.183C49.0815 25.0461 48.7667 24.8418 48.501 24.582C48.2362 24.3294 48.0235 24.0274 47.875 23.693C47.58 22.964 47.58 22.149 47.875 21.42C48.0166 21.081 48.2235 20.7731 48.484 20.514C48.75 20.254 49.064 20.05 49.41 19.914C49.787 19.761 50.19 19.685 50.597 19.691L50.593 19.678ZM50.593 20.798C50.362 20.795 50.133 20.838 49.918 20.924C49.7148 21.0056 49.5306 21.128 49.3766 21.2837C49.2227 21.4393 49.1023 21.625 49.023 21.829C48.849 22.285 48.849 22.789 49.023 23.245C49.1023 23.4493 49.2228 23.6352 49.3769 23.791C49.531 23.9469 49.7155 24.0694 49.919 24.151C50.352 24.321 50.833 24.321 51.266 24.151C51.676 23.989 52.004 23.667 52.17 23.258C52.344 22.802 52.344 22.298 52.17 21.843C52.0882 21.6388 51.966 21.4533 51.8106 21.2976C51.6553 21.1419 51.47 21.0192 51.266 20.937C51.0528 20.8524 50.8254 20.8093 50.596 20.81L50.593 20.798ZM57.083 19.678C57.4111 19.6657 57.7373 19.7319 58.0346 19.8713C58.3319 20.0106 58.5916 20.219 58.792 20.479V17.083H59.979V25.274H58.792V24.621C58.602 24.863 58.362 25.061 58.088 25.201C57.7748 25.3517 57.4304 25.4261 57.083 25.418C56.5388 25.423 56.0064 25.26 55.5583 24.9513C55.1102 24.6426 54.7682 24.2032 54.579 23.693C54.2995 22.9518 54.2995 22.1342 54.579 21.393C54.71 21.057 54.907 20.749 55.157 20.488C55.4067 20.2302 55.7062 20.0259 56.0373 19.8873C56.3683 19.7488 56.7241 19.6789 57.083 19.682V19.678ZM57.227 20.798C56.9905 20.793 56.7559 20.8405 56.54 20.937C56.3438 21.0247 56.1682 21.1525 56.0244 21.3122C55.8806 21.4718 55.7718 21.6598 55.705 21.864C55.5541 22.3014 55.5541 22.7767 55.705 23.214C55.775 23.418 55.885 23.606 56.027 23.767C56.17 23.927 56.345 24.054 56.54 24.142C56.974 24.322 57.462 24.322 57.896 24.142C58.0913 24.0558 58.2675 23.9314 58.414 23.776C58.555 23.626 58.667 23.45 58.744 23.258C58.903 22.81 58.903 22.321 58.744 21.873C58.6683 21.6704 58.5546 21.484 58.409 21.324C58.2628 21.1688 58.087 21.0443 57.892 20.958C57.6835 20.8615 57.4567 20.811 57.227 20.81V20.798ZM63.922 19.678C64.279 19.675 64.633 19.746 64.962 19.888C65.27 20.021 65.546 20.22 65.77 20.471C66.001 20.735 66.18 21.041 66.296 21.372C66.427 21.746 66.492 22.139 66.487 22.535V22.979H62.475C62.503 23.201 62.574 23.416 62.683 23.611C62.7783 23.7797 62.9016 23.9247 63.053 24.046C63.1983 24.1593 63.359 24.242 63.535 24.294C63.717 24.3473 63.9026 24.3737 64.092 24.373C64.372 24.371 64.648 24.319 64.909 24.22C65.182 24.118 65.436 23.97 65.661 23.785L66.253 24.63C65.945 24.9 65.586 25.103 65.196 25.226C64.814 25.341 64.416 25.399 64.018 25.396C63.6344 25.4004 63.2535 25.3311 62.896 25.192C62.5654 25.0596 62.2662 24.8594 62.0176 24.6043C61.7691 24.3493 61.5767 24.0449 61.453 23.711C61.3115 23.3353 61.2419 22.9364 61.248 22.535C61.2442 22.1385 61.312 21.7445 61.448 21.372C61.571 21.036 61.761 20.728 62.005 20.466C62.2506 20.2124 62.5471 20.0137 62.875 19.883C63.2085 19.7526 63.5639 19.6875 63.922 19.691V19.678ZM67.057 25.261V25H67.166V24.943H66.883V25H67.005V25.274L67.057 25.261ZM67.6 25.261V24.931H67.513L67.413 25.157L67.313 24.93H67.226V25.261H67.287V25.013L67.379 25.226H67.439L67.531 25.013V25.261H67.6ZM63.9 20.736C63.7072 20.7314 63.5154 20.764 63.335 20.832C63.173 20.892 63.025 20.985 62.901 21.106C62.7788 21.2331 62.6799 21.3806 62.609 21.542C62.5304 21.7136 62.4766 21.8954 62.449 22.082H65.266C65.2351 21.7092 65.0823 21.3571 64.831 21.08C64.7061 20.9653 64.5594 20.8769 64.3996 20.8202C64.2398 20.7635 64.0702 20.7396 63.901 20.75L63.9 20.736Z" fill="white"/>
<path d="M12.7968 14.0561H11.4668V7.27015L9.06176 13.2401H7.66176L5.26576 7.33615V14.0561H3.92676V5.81215H5.96676L8.36176 11.7041L10.7528 5.81215H12.7928L12.7968 14.0561ZM19.7968 14.0561H18.5658V13.3811C18.3688 13.6317 18.1197 13.8364 17.8358 13.9811C17.5119 14.1375 17.1553 14.214 16.7958 14.2041C16.4231 14.2082 16.0535 14.1361 15.7096 13.9923C15.3657 13.8486 15.0547 13.6362 14.7958 13.3681C14.5367 13.0963 14.3329 12.7767 14.1958 12.4271C13.9057 11.6583 13.9057 10.81 14.1958 10.0411C14.3328 9.69115 14.5358 9.37115 14.7958 9.10015C15.0547 8.8321 15.3657 8.6197 15.7096 8.47596C16.0535 8.33221 16.4231 8.26014 16.7958 8.26415C17.1558 8.25415 17.5118 8.33215 17.8358 8.49015C18.1198 8.63615 18.3688 8.84315 18.5658 9.09515V8.41615H19.7958L19.7968 14.0561ZM16.9398 9.42615C16.6945 9.42214 16.4513 9.47127 16.2268 9.57015C16.0252 9.66144 15.8447 9.79355 15.6968 9.95815C15.5483 10.1259 15.4345 10.3213 15.3618 10.5331C15.2051 10.9874 15.2051 11.4809 15.3618 11.9351C15.4358 12.1471 15.5518 12.3421 15.7008 12.5101C15.8488 12.6751 16.0288 12.8071 16.2308 12.8971C16.6808 13.0871 17.1888 13.0871 17.6398 12.8971C17.842 12.809 18.0238 12.6799 18.1738 12.5181C18.3258 12.3531 18.4438 12.1581 18.5218 11.9481C18.6866 11.4833 18.6866 10.976 18.5218 10.5111C18.4446 10.3 18.3263 10.1063 18.1738 9.94115C18.0166 9.77243 17.8252 9.6392 17.6124 9.55039C17.3996 9.46158 17.1702 9.41922 16.9398 9.42615ZM25.4348 9.82715C25.1978 9.69133 24.9453 9.58456 24.6828 9.50915C24.523 9.46001 24.3604 9.42094 24.1958 9.39215C24.0235 9.36095 23.8488 9.34489 23.6738 9.34415C23.3987 9.32769 23.125 9.39273 22.8868 9.53115C22.8016 9.58081 22.731 9.65209 22.6822 9.73778C22.6333 9.82347 22.608 9.92053 22.6088 10.0191C22.6053 10.1077 22.6313 10.195 22.6828 10.2671C22.7361 10.3378 22.8014 10.3928 22.8788 10.4321C22.9721 10.4801 23.0704 10.5151 23.1738 10.5371C23.2871 10.5638 23.4091 10.5871 23.5398 10.6071L24.1218 10.6941C24.6401 10.7478 25.136 10.9337 25.5618 11.2341C25.9188 11.4991 26.1218 11.9241 26.1048 12.3701C26.1068 12.6291 26.0468 12.8851 25.9308 13.1151C25.8081 13.3375 25.6373 13.5295 25.4308 13.6771C25.1884 13.8526 24.9154 13.9811 24.6258 14.0561C24.2718 14.1501 23.9058 14.1961 23.5388 14.1911C23.3705 14.1896 23.2023 14.1809 23.0348 14.1651C22.5956 14.1237 22.1656 14.0134 21.7608 13.8381C21.5333 13.7416 21.3187 13.6173 21.1218 13.4681L21.6918 12.5451C21.7964 12.6258 21.9064 12.6998 22.0218 12.7671C22.1511 12.8405 22.2861 12.9015 22.4268 12.9501C22.5894 13.0061 22.7561 13.0481 22.9268 13.0761C23.1321 13.1095 23.3391 13.1255 23.5478 13.1241C23.8778 13.1421 24.2068 13.0781 24.5048 12.9371C24.6009 12.893 24.6825 12.8224 24.7402 12.7338C24.7979 12.6451 24.8293 12.5419 24.8308 12.4361C24.829 12.3554 24.8065 12.2764 24.7653 12.2068C24.7242 12.1373 24.6658 12.0795 24.5958 12.0391C24.3678 11.9125 24.1156 11.8355 23.8558 11.8131L23.2698 11.7351C22.7514 11.693 22.2562 11.502 21.8438 11.1851C21.684 11.0498 21.5568 10.8802 21.4718 10.6888C21.3868 10.4975 21.3461 10.2894 21.3528 10.0801C21.3486 9.81814 21.4051 9.55872 21.5178 9.32215C21.6248 9.09715 21.7848 8.90215 21.9828 8.75215C22.2028 8.58915 22.4498 8.46715 22.7128 8.39415C23.0283 8.30561 23.355 8.26318 23.6828 8.26815C24.1048 8.26615 24.5258 8.31815 24.9348 8.42515C25.2988 8.51515 25.6468 8.66215 25.9648 8.86015L25.4348 9.82715ZM31.2698 9.53115H29.0958V11.9871C29.0958 12.1538 29.1231 12.3165 29.1778 12.4751C29.2184 12.5971 29.2824 12.7061 29.3698 12.8021C29.4471 12.8866 29.5439 12.9508 29.6518 12.9891C29.7651 13.0291 29.8824 13.0491 30.0038 13.0491C30.2048 13.0491 30.4038 13.0091 30.5908 12.9371C30.7828 12.8651 30.9654 12.7751 31.1388 12.6671L31.6258 13.6511C31.3858 13.8111 31.1308 13.9431 30.8608 14.0471C30.5535 14.1602 30.2282 14.2165 29.9008 14.2131C29.6293 14.2297 29.3574 14.1906 29.1015 14.0985C28.8457 14.0063 28.6113 13.863 28.4128 13.6771C28.2169 13.4495 28.0683 13.1851 27.9758 12.8994C27.8832 12.6137 27.8485 12.3124 27.8738 12.0131V9.53515H26.7568V8.41615H27.8738V6.71015H29.1088V8.41715H31.2828L31.2698 9.53115ZM35.0518 8.26415C35.4219 8.2605 35.7888 8.33301 36.1298 8.47715C36.4498 8.61615 36.7368 8.82215 36.9698 9.08215C37.2098 9.35615 37.3958 9.67415 37.5168 10.0191C37.6518 10.4061 37.7178 10.8151 37.7128 11.2251V11.6821H33.5258C33.5558 11.9121 33.6298 12.1341 33.7428 12.3361C33.9396 12.6696 34.2549 12.9167 34.6258 13.0281C34.8151 13.0841 35.0078 13.1118 35.2038 13.1111C35.5008 13.1111 35.7958 13.0581 36.0738 12.9541C36.3548 12.8521 36.6178 12.7051 36.8518 12.5181L37.4648 13.3891C37.1456 13.6683 36.7726 13.8789 36.3688 14.0081C35.9728 14.1281 35.5618 14.1881 35.1478 14.1861C34.7434 14.2006 34.3402 14.1357 33.9608 13.9951C33.6153 13.8594 33.3024 13.6524 33.0424 13.3875C32.7824 13.1227 32.5811 12.806 32.4518 12.4581C32.3067 12.068 32.2345 11.6544 32.2388 11.2381C32.2338 10.8271 32.3028 10.4181 32.4438 10.0321C32.5708 9.68215 32.7678 9.36215 33.0218 9.09215C33.2658 8.83115 33.5618 8.62515 33.8918 8.48615C34.2594 8.33473 34.6542 8.26053 35.0518 8.26815V8.26415ZM35.0298 9.36015C34.8296 9.35646 34.6304 9.39038 34.4428 9.46015C34.2801 9.52589 34.1325 9.62385 34.0088 9.74815C33.8814 9.87481 33.7798 10.0198 33.7038 10.1831C33.6176 10.3637 33.5576 10.5556 33.5258 10.7531H36.4478C36.4088 10.3695 36.2435 10.0096 35.9778 9.73015C35.8527 9.60789 35.7044 9.51211 35.5415 9.44853C35.3786 9.38496 35.2045 9.3549 35.0298 9.36015ZM41.9868 8.26315C42.1574 8.26181 42.3268 8.27482 42.4948 8.30215C42.6441 8.32881 42.7891 8.36948 42.9298 8.42415L42.6338 9.64415C42.4967 9.57371 42.3507 9.52224 42.1998 9.49115C42.0409 9.45752 41.8791 9.4401 41.7168 9.43915C41.5323 9.43664 41.3491 9.47062 41.1778 9.53915C41.0117 9.60255 40.8627 9.70391 40.7428 9.83515C40.6181 9.97648 40.5254 10.1361 40.4648 10.3141C40.395 10.5202 40.3612 10.7367 40.3648 10.9541V14.0591H39.1348V8.40015H40.3518V9.03615C40.5238 8.78315 40.7618 8.58115 41.0388 8.45215C41.3338 8.32515 41.6528 8.26215 41.9738 8.26915L41.9868 8.26315ZM46.1908 8.26315C46.5957 8.26055 46.9973 8.33733 47.3728 8.48915C47.7308 8.63615 48.0468 8.86815 48.2948 9.16415L47.5078 10.0041C47.3248 9.82707 47.1149 9.68024 46.8858 9.56915C46.6567 9.46508 46.4073 9.41317 46.1558 9.41715C45.93 9.41365 45.7061 9.45795 45.4988 9.54715C45.2952 9.63467 45.1121 9.7635 44.961 9.92548C44.8098 10.0875 44.694 10.2791 44.6208 10.4881C44.4508 10.9621 44.4508 11.4811 44.6208 11.9561C44.6988 12.1661 44.8168 12.3611 44.9688 12.5261C45.1188 12.6861 45.2988 12.8111 45.4988 12.8961C45.7068 12.9851 45.9308 13.0291 46.1558 13.0271C46.4168 13.0291 46.6758 12.9731 46.9128 12.8621C47.1408 12.7501 47.3508 12.6021 47.5338 12.4261L48.2908 13.2761C48.0373 13.5699 47.7189 13.8007 47.3608 13.9501C46.9871 14.1045 46.586 14.1817 46.1818 14.1771C45.7652 14.1814 45.3518 14.1043 44.9648 13.9501C44.6145 13.8103 44.2972 13.5991 44.0329 13.33C43.7687 13.0609 43.5633 12.7399 43.4298 12.3871C43.1472 11.6272 43.1472 10.7911 43.4298 10.0311C43.5632 9.67826 43.7685 9.35697 44.0328 9.08772C44.297 8.81847 44.6144 8.60713 44.9648 8.46715C45.3518 8.32115 45.7648 8.25315 46.1778 8.26715L46.1908 8.26315ZM54.8298 14.0551H53.5998V13.3801C53.4025 13.6308 53.153 13.8355 52.8688 13.9801C52.5449 14.1365 52.1883 14.213 51.8288 14.2031C51.4561 14.2072 51.0865 14.1351 50.7426 13.9913C50.3987 13.8476 50.0877 13.6352 49.8288 13.3671C49.5697 13.0953 49.366 12.7757 49.2288 12.4261C48.9387 11.6573 48.9387 10.809 49.2288 10.0401C49.3658 9.69015 49.5688 9.37015 49.8288 9.09915C50.0877 8.8311 50.3987 8.6187 50.7426 8.47496C51.0865 8.33121 51.4561 8.25914 51.8288 8.26315C52.1888 8.25315 52.5458 8.33115 52.8688 8.48915C53.1532 8.63536 53.4023 8.84182 53.5988 9.09415V8.41515H54.8288L54.8298 14.0551ZM51.9778 9.42515C51.7322 9.421 51.4886 9.47013 51.2638 9.56915C51.0622 9.66044 50.8817 9.79255 50.7338 9.95715C50.5853 10.1249 50.4715 10.3203 50.3988 10.5321C50.2421 10.9864 50.2421 11.4799 50.3988 11.9341C50.4728 12.1451 50.5868 12.3401 50.7338 12.5091C50.8818 12.6741 51.0628 12.8061 51.2638 12.8961C51.7148 13.0851 52.2218 13.0851 52.6738 12.8961C52.8748 12.8081 53.0568 12.6791 53.2078 12.5171C53.3598 12.3521 53.4778 12.1581 53.5558 11.9471C53.7206 11.4823 53.7206 10.975 53.5558 10.5101C53.4786 10.299 53.3603 10.1053 53.2078 9.94015C53.0515 9.77245 52.8614 9.63983 52.65 9.55106C52.4387 9.46228 52.2109 9.41936 51.9818 9.42515H51.9778ZM59.4948 8.26715C59.6654 8.26582 59.8348 8.27915 60.0028 8.30715C60.1521 8.33248 60.2971 8.37282 60.4378 8.42815L60.1418 9.64815C60.0047 9.57771 59.8587 9.52624 59.7078 9.49515C59.5489 9.46152 59.3871 9.4441 59.2248 9.44315C59.0403 9.44064 58.8571 9.47462 58.6858 9.54315C58.5197 9.60655 58.3707 9.70791 58.2508 9.83915C58.1261 9.98048 58.0334 10.1405 57.9728 10.3191C57.903 10.5252 57.8692 10.7417 57.8728 10.9591V14.0641H56.6428V8.40315H57.8728V9.03915C58.0458 8.78415 58.2848 8.58015 58.5638 8.45115C58.8588 8.32415 59.1778 8.26115 59.4988 8.26815L59.4948 8.26715ZM63.5288 8.26715C63.8888 8.25715 64.2448 8.33515 64.5688 8.49315C64.8528 8.64015 65.1018 8.84615 65.2988 9.09915V5.57715H66.5288V14.0561H65.2998V13.3811C65.1028 13.6317 64.8537 13.8364 64.5698 13.9811C64.2459 14.1375 63.8893 14.214 63.5298 14.2041C63.1571 14.2082 62.7875 14.1361 62.4436 13.9923C62.0997 13.8486 61.7887 13.6362 61.5298 13.3681C61.2661 13.0974 61.0578 12.7778 60.9168 12.4271C60.6267 11.6583 60.6267 10.81 60.9168 10.0411C61.0538 9.69115 61.2568 9.37115 61.5168 9.10015C61.7757 8.8321 62.0867 8.6197 62.4306 8.47596C62.7745 8.33221 63.1441 8.26014 63.5168 8.26415L63.5288 8.26715ZM67.9638 13.5371C68.0354 13.5354 68.106 13.5552 68.1664 13.5938C68.2268 13.6325 68.2743 13.6883 68.3028 13.7541C68.3313 13.8196 68.3392 13.8923 68.3252 13.9624C68.3113 14.0325 68.2762 14.0966 68.2248 14.1461C68.1552 14.2151 68.0617 14.2545 67.9638 14.2561C67.8919 14.2566 67.8216 14.2361 67.7612 14.1972C67.7008 14.1583 67.6531 14.1027 67.6238 14.0371C67.6053 13.9935 67.5958 13.9466 67.5957 13.8992C67.5956 13.8518 67.605 13.8048 67.6232 13.7611C67.6415 13.7173 67.6682 13.6776 67.702 13.6443C67.7357 13.611 67.7758 13.5848 67.8198 13.5671C67.8667 13.5478 67.917 13.5377 67.9678 13.5371H67.9638ZM67.9638 14.1771C68.0002 14.1772 68.0362 14.1698 68.0697 14.1556C68.1032 14.1413 68.1335 14.1204 68.1588 14.0941C68.1908 14.0616 68.2146 14.0218 68.2279 13.9781C68.2412 13.9343 68.2438 13.8881 68.2353 13.8431C68.2269 13.7982 68.2077 13.756 68.1794 13.7202C68.151 13.6843 68.1145 13.6558 68.0728 13.6371C68.0364 13.6304 67.9991 13.6304 67.9628 13.6371C67.927 13.6306 67.8905 13.6306 67.8548 13.6371C67.8163 13.6561 67.7828 13.6837 67.7567 13.7177C67.7306 13.7517 67.7127 13.7912 67.7043 13.8332C67.6959 13.8753 67.6972 13.9187 67.7082 13.9601C67.7192 14.0015 67.7396 14.0398 67.7678 14.0721C67.7929 14.0975 67.8224 14.1182 67.8548 14.1331C67.8894 14.1539 67.9278 14.1676 67.9678 14.1731L67.9638 14.1771ZM67.9638 13.7411C67.9996 13.7389 68.0351 13.7495 68.0638 13.7711C68.0871 13.7925 68.0988 13.8191 68.0988 13.8511C68.0992 13.8766 68.0899 13.9013 68.0728 13.9201C68.0512 13.9405 68.0233 13.9528 67.9938 13.9551L68.1028 14.0811H68.0158L67.9158 13.9551H67.8858V14.0811H67.8158V13.7461L67.9638 13.7411ZM67.8808 13.8021V13.8891H67.9638C67.9784 13.8931 67.9928 13.8931 68.0068 13.8891C68.0094 13.8837 68.0108 13.8777 68.0108 13.8716C68.0108 13.8656 68.0094 13.8596 68.0068 13.8541C68.0093 13.8488 68.0106 13.843 68.0106 13.8371C68.0106 13.8313 68.0093 13.8255 68.0068 13.8201C67.9926 13.817 67.9779 13.817 67.9638 13.8201L67.8808 13.8021ZM63.6548 9.44715C63.4095 9.44314 63.1663 9.49227 62.9418 9.59115C62.7402 9.68244 62.5597 9.81455 62.4118 9.97915C62.2634 10.1466 62.1496 10.3416 62.0768 10.5531C61.9199 11.0077 61.9199 11.5016 62.0768 11.9561C62.1508 12.1671 62.2648 12.3621 62.4118 12.5311C62.5598 12.6951 62.7408 12.8271 62.9418 12.9181C63.165 13.0113 63.4044 13.0592 63.6463 13.0592C63.8881 13.0592 64.1275 13.0113 64.3508 12.9181C64.5528 12.8301 64.7348 12.7011 64.8858 12.5391C65.0528 12.3661 65.1818 12.1601 65.2638 11.9341C65.4286 11.4693 65.4286 10.962 65.2638 10.4971C65.1866 10.286 65.0683 10.0923 64.9158 9.92715C64.7656 9.76488 64.5834 9.63549 64.3808 9.54715C64.1586 9.45763 63.9201 9.41605 63.6808 9.42515L63.6548 9.44715Z" fill="white"/>
</svg>
