<svg width="72" height="32" viewBox="0 0 72 32" fill="none" xmlns="http://www.w3.org/2000/svg">
<path fill-rule="evenodd" clip-rule="evenodd" d="M30.4629 16.769L27.6789 24.268L27.3829 22.744C26.6889 20.876 25.1879 18.916 23.4399 18.121L25.9869 27.751L28.9969 27.75L33.4739 16.769H30.4629ZM32.8499 27.762L34.6289 16.758H37.4729L35.6929 27.762H32.8499ZM46.0089 17.03C45.1955 16.7181 44.3311 16.5608 43.4599 16.566C40.6469 16.566 38.6699 18.06 38.6529 20.197C38.6349 21.78 40.0659 22.663 41.1429 23.189C42.2529 23.727 42.6229 24.072 42.6199 24.553C42.6099 25.291 41.7319 25.627 40.9159 25.627C39.7789 25.627 39.1729 25.461 38.2409 25.052L37.8709 24.876L37.4739 27.339C38.1389 27.645 39.3679 27.911 40.6439 27.925C43.6299 27.925 45.5729 26.448 45.5959 24.167C45.6079 22.911 44.8479 21.961 43.2059 21.177C42.2139 20.667 41.6009 20.328 41.6099 19.811C41.6109 19.355 42.1239 18.866 43.2399 18.866C43.9717 18.8496 44.6981 18.994 45.3679 19.289L45.6219 19.415L46.0089 17.03ZM53.3029 16.77H51.1059C50.4249 16.77 49.9139 16.964 49.6139 17.683L45.3919 27.766H48.3789C48.3789 27.766 48.8669 26.409 48.9779 26.111L52.6179 26.118C52.7069 26.501 52.9649 27.766 52.9649 27.766H55.6059L53.3029 16.77ZM49.7959 23.86C50.0319 23.229 50.9289 20.785 50.9289 20.785C50.9109 20.815 51.1619 20.148 51.3069 19.736L51.4969 20.685L52.1569 23.86H49.7959Z" fill="white"/>
<path fill-rule="evenodd" clip-rule="evenodd" d="M25.0969 16.7632H20.5099L20.4829 16.9532C24.0489 17.8632 26.4029 20.1012 27.3829 22.7472L26.3859 17.6902C26.2139 16.9942 25.7159 16.7882 25.0969 16.7632Z" fill="white"/>
<path fill-rule="evenodd" clip-rule="evenodd" d="M11.906 14.104H10.092L8 4.683L10.004 4.348L11.436 11.721L15.082 4.446H17.007L11.906 14.104ZM21.338 11.024H17.013C16.895 12.334 17.504 12.906 18.536 12.906C19.402 12.906 20.163 12.585 20.981 12.069L20.975 13.379C20.1336 13.9187 19.1546 14.2044 18.155 14.202C16.272 14.202 15.028 13.129 15.402 10.703C15.739 8.515 17.254 7.192 19.012 7.192C21.035 7.192 21.708 8.711 21.414 10.62C21.393 10.76 21.353 10.927 21.338 11.024ZM18.792 8.348C18.122 8.348 17.497 8.878 17.202 9.979H19.88C19.93 8.933 19.602 8.349 18.793 8.349M24.158 10.203L23.563 14.063H21.889L22.926 7.332H24.349L24.35 8.684C24.917 7.904 25.687 7.248 26.742 7.193L26.752 8.851C26.2507 8.88937 25.7624 9.02896 25.3165 9.26133C24.8707 9.49371 24.4766 9.81405 24.158 10.203ZM26.73 14.063L27.767 7.332H29.441L28.404 14.064L26.73 14.063ZM28.792 6.203C28.234 6.203 27.848 5.813 27.934 5.255C27.9801 4.98231 28.1213 4.73476 28.3325 4.55628C28.5438 4.3778 28.8114 4.27991 29.088 4.28C29.633 4.28 30.017 4.684 29.928 5.255C29.843 5.813 29.336 6.203 28.792 6.203ZM34.078 5.492C33.506 5.492 33.16 5.742 33.068 6.342L32.915 7.332H34.199L34.198 8.697H32.705L31.878 14.064H30.218L31.045 8.697H30.068L30.278 7.332H31.255L31.433 6.175C31.663 4.684 32.698 4.126 34.079 4.126C34.372 4.126 34.591 4.154 34.754 4.182L34.767 5.548C34.539 5.50943 34.3092 5.49069 34.078 5.492ZM34.095 14.064L35.132 7.332H36.806L35.769 14.064H34.095ZM36.157 6.203C35.599 6.203 35.213 5.813 35.299 5.255C35.3451 4.98231 35.4863 4.73476 35.6975 4.55628C35.9088 4.3778 36.1764 4.27991 36.453 4.28C36.998 4.28 37.382 4.684 37.293 5.255C37.208 5.813 36.701 6.203 36.157 6.203ZM43.297 11.025H38.972C38.854 12.335 39.463 12.907 40.496 12.907C41.361 12.907 42.122 12.586 42.941 12.07L42.934 13.38C42.0926 13.9197 41.1136 14.2054 40.114 14.203C38.231 14.203 36.988 13.13 37.361 10.704C37.698 8.516 39.214 7.193 40.971 7.193C42.995 7.193 43.667 8.712 43.373 10.621C43.352 10.761 43.312 10.928 43.297 11.025ZM40.752 8.349C40.082 8.349 39.456 8.879 39.162 9.98H41.84C41.889 8.934 41.56 8.35 40.752 8.35M48.256 14.064L48.26 13.131C47.698 13.702 46.965 14.204 46.03 14.204C44.62 14.204 43.652 13.159 44.002 10.887C44.388 8.378 45.942 7.263 47.504 7.263C48.0228 7.25583 48.5387 7.34047 49.028 7.513L49.528 4.267L51.243 4L49.693 14.063L48.256 14.064ZM48.816 8.894C48.427 8.698 48.121 8.601 47.549 8.601C46.67 8.601 45.919 9.311 45.691 10.789C45.49 12.099 45.953 12.712 46.693 12.712C47.306 12.712 47.836 12.35 48.369 11.792L48.816 8.894ZM54.821 14.128C54.1266 14.1342 53.4363 14.0199 52.781 13.79L53.883 6.643L55.182 6.443L54.705 9.535C55.085 9.198 55.612 8.86 56.257 8.86C57.335 8.86 58.057 9.662 57.793 11.372C57.503 13.252 56.342 14.128 54.821 14.128ZM55.758 9.978C55.335 9.978 54.911 10.264 54.535 10.644L54.179 12.956C54.429 13.051 54.602 13.093 54.961 13.093C55.764 13.093 56.325 12.608 56.504 11.446C56.656 10.464 56.329 9.979 55.758 9.979M60.782 14.34C60.134 15.596 59.492 15.987 58.51 15.987C58.288 15.987 58.164 15.966 58.053 15.934L58.045 14.889C58.208 14.931 58.382 14.963 58.625 14.963C58.995 14.963 59.317 14.794 59.533 14.424L59.701 14.087L58.626 9.061L59.973 8.893L60.597 12.524L62.287 8.967H63.544L60.782 14.34Z" fill="white"/>
</svg>
