<svg width="24" height="24" viewBox="0 0 24 24" fill="none" xmlns="http://www.w3.org/2000/svg">
<path d="M0.761905 0.761907H4.50791L6.38095 4.50795V12.5486C6.38095 13.3966 6.71781 14.2099 7.31743 14.8095C7.91705 15.4092 8.73033 15.746 9.57838 15.746H16.8432C18.5392 15.746 20.1658 15.0723 21.365 13.873C22.5643 12.6738 23.2381 11.0472 23.2381 9.35119V4.50795M18.0873 18.5556C16.7942 18.5556 15.746 19.6038 15.746 20.8969C15.746 22.1899 16.7942 23.2381 18.0873 23.2381C19.3803 23.2381 20.4286 22.1899 20.4286 20.8969C20.4286 19.6038 19.3803 18.5556 18.0873 18.5556ZM9.64605 18.5556C8.353 18.5556 7.30476 19.6038 7.30476 20.8969C7.30476 22.1899 8.353 23.2381 9.64605 23.2381C10.9391 23.2381 11.9873 22.1899 11.9873 20.8969C11.9873 19.6038 10.9391 18.5556 9.64605 18.5556Z" stroke="black" stroke-width="1.5" stroke-miterlimit="10" stroke-linecap="round" stroke-linejoin="round"/>
</svg>
