<svg width="24" height="24" viewBox="0 0 24 24" fill="none" xmlns="http://www.w3.org/2000/svg">
<mask id="mask0_0_147" style="mask-type:luminance" maskUnits="userSpaceOnUse" x="-1" y="-1" width="26" height="26">
<path d="M-0.190476 -0.190453H24.1905V24.1905H-0.190476V-0.190453Z" fill="white"/>
</mask>
<g mask="url(#mask0_0_147)">
<path d="M6.38095 4.50795L4.50791 0.761905H0.761905M6.38095 4.50795H23.2381V9.35119C23.2381 11.0472 22.5643 12.6738 21.365 13.873C20.1658 15.0723 18.5392 15.746 16.8432 15.746H9.57838C8.73033 15.746 7.91705 15.4092 7.31743 14.8095C6.71781 14.2099 6.38095 13.3966 6.38095 12.5486V4.50795ZM18.0873 18.5556C16.7942 18.5556 15.746 19.6038 15.746 20.8969C15.746 22.1899 16.7942 23.2381 18.0873 23.2381C19.3803 23.2381 20.4286 22.1899 20.4286 20.8969C20.4286 19.6038 19.3803 18.5556 18.0873 18.5556ZM9.64605 18.5556C8.353 18.5556 7.30476 19.6038 7.30476 20.8969C7.30476 22.1899 8.353 23.2381 9.64605 23.2381C10.9391 23.2381 11.9873 22.1899 11.9873 20.8969C11.9873 19.6038 10.9391 18.5556 9.64605 18.5556Z" stroke="white" stroke-width="1.5" stroke-miterlimit="10" stroke-linecap="round" stroke-linejoin="round"/>
</g>
</svg>
