<svg xmlns="http://www.w3.org/2000/svg" xmlns:xlink="http://www.w3.org/1999/xlink"><symbol fill="none" id="sprite-arrow" viewBox="0 0 40 26"><path fill="#fff" fill-rule="evenodd" d="M.167 13c0 .378.149.74.415 1.008.265.268.626.418 1.001.418h33.412l-8.916 8.97a1.43 1.43 0 0 0 0 2.02 1.414 1.414 0 0 0 2.005 0l11.333-11.407A1.43 1.43 0 0 0 39.833 13a1.43 1.43 0 0 0-.416-1.01L28.084.586a1.42 1.42 0 0 0-1.002-.418c-.377 0-.737.15-1.003.418a1.43 1.43 0 0 0 0 2.019l8.916 8.97H1.583c-.375 0-.736.15-1.001.418A1.43 1.43 0 0 0 .167 13" clip-rule="evenodd"/></symbol><use xlink:href="#sprite-arrow" width="40" height="26" y="0"/><view id="sprite-arrow-view" viewBox="0 0 40 26"/><symbol id="sprite-home" viewBox="0 0 24 24"><path d="m12 0 12 24H0z"/></symbol><use xlink:href="#sprite-home" width="24" height="24" y="26"/><view id="sprite-home-view" viewBox="0 26 24 24"/><symbol fill="currentColor" id="sprite-Logo" viewBox="0 0 162 31"><path d="M1.63 24q-.363 0-.561-.198a.83.83 0 0 1-.198-.561V1.692q0-.363.198-.561Q1.267.9 1.63.9h13.464q.363 0 .561.231.198.198.198.561v1.32q0 .363-.198.561t-.561.198H4.072v7.689h10.362q.363 0 .561.231.198.198.198.561v1.32q0 .33-.198.561-.198.198-.561.198H4.072v8.91q0 .33-.231.561Q3.643 24 3.28 24zm18.681 0a.83.83 0 0 1-.56-.198.83.83 0 0 1-.199-.561V7.599q0-.33.198-.528a.76.76 0 0 1 .561-.231h1.584a.66.66 0 0 1 .528.231.71.71 0 0 1 .198.528v15.642q0 .33-.198.561a.71.71 0 0 1-.528.198zm-.264-20.361a.83.83 0 0 1-.56-.198.83.83 0 0 1-.199-.561V1.098q0-.33.198-.528a.76.76 0 0 1 .561-.231h2.08a.66.66 0 0 1 .527.231.66.66 0 0 1 .231.528V2.88q0 .33-.23.561a.71.71 0 0 1-.529.198zM28.626 24a.83.83 0 0 1-.561-.198.83.83 0 0 1-.198-.561V7.632q0-.33.198-.561a.76.76 0 0 1 .56-.231h1.519q.33 0 .56.231a.76.76 0 0 1 .232.561v1.452a4.2 4.2 0 0 1 1.815-1.683q1.155-.561 2.772-.561h1.32a.66.66 0 0 1 .528.231.71.71 0 0 1 .198.528v1.353q0 .33-.198.528a.71.71 0 0 1-.528.198h-1.98q-1.782 0-2.805 1.056-1.023 1.023-1.023 2.805v9.702q0 .33-.231.561a.83.83 0 0 1-.561.198zm18.286.33q-3.399 0-5.412-2.079-2.014-2.112-2.211-5.742a15 15 0 0 1-.033-1.089q0-.693.033-1.122.131-2.343 1.089-4.092.957-1.782 2.607-2.739 1.682-.957 3.927-.957 2.508 0 4.19 1.056 1.717 1.056 2.608 3.003.89 1.947.89 4.554v.561q0 .363-.23.561a.71.71 0 0 1-.528.198H42.424v.297q.066 1.353.594 2.541.528 1.155 1.518 1.881t2.376.726q1.188 0 1.98-.363t1.287-.792q.495-.462.66-.693.297-.429.462-.495.165-.099.528-.099h1.584q.33 0 .528.198.231.165.198.495-.033.495-.528 1.221-.495.693-1.42 1.386-.923.693-2.243 1.155-1.32.429-3.036.429m-4.488-10.164h9.042v-.099q0-1.485-.561-2.64a4.17 4.17 0 0 0-1.551-1.815q-1.023-.693-2.442-.693t-2.442.693q-.99.66-1.518 1.815t-.528 2.64zM59.37 24a.88.88 0 0 1-.593-.231.8.8 0 0 1-.231-.594V1.725q0-.363.23-.594A.88.88 0 0 1 59.372.9h3.07q.495 0 .725.264.265.264.364.396l6.072 11.187L75.74 1.56q.065-.132.297-.396Q76.3.9 76.795.9h3.07q.363 0 .594.231a.8.8 0 0 1 .23.594v21.45q0 .363-.23.594a.8.8 0 0 1-.594.231h-3.366a.76.76 0 0 1-.561-.231.8.8 0 0 1-.231-.594V9.843l-4.191 7.854q-.166.297-.43.528-.263.231-.692.231h-1.552q-.428 0-.692-.231a2 2 0 0 1-.43-.528l-4.19-7.854v13.332q0 .363-.232.594a.76.76 0 0 1-.56.231zm33.705.33q-2.739 0-4.587-.891-1.848-.924-2.838-2.607-.957-1.683-1.056-3.927-.033-.66-.033-1.485 0-.858.033-1.485.099-2.277 1.122-3.927 1.023-1.683 2.87-2.574 1.85-.924 4.489-.924 2.607 0 4.455.924 1.848.891 2.871 2.574 1.023 1.65 1.122 3.927.066.627.066 1.485 0 .825-.066 1.485-.099 2.244-1.089 3.927-.957 1.683-2.805 2.607-1.848.891-4.554.891m0-3.63q1.617 0 2.442-.99.825-1.023.89-2.97.034-.495.034-1.32t-.033-1.32q-.066-1.914-.891-2.937t-2.442-1.023-2.475 1.023q-.825 1.023-.891 2.937-.033.495-.033 1.32t.033 1.32q.065 1.947.89 2.97.86.99 2.476.99m12.757 3.3a.76.76 0 0 1-.561-.231.8.8 0 0 1-.231-.594V7.665q0-.363.231-.594a.76.76 0 0 1 .561-.231h3.234q.363 0 .594.231a.8.8 0 0 1 .231.594v1.287q.858-1.056 2.211-1.749t3.3-.693 3.399.891q1.485.858 2.31 2.541.858 1.65.858 4.026v9.207q0 .363-.264.594a.76.76 0 0 1-.561.231h-3.498a.8.8 0 0 1-.594-.231.8.8 0 0 1-.231-.594v-9.009q0-1.749-.858-2.706-.825-.99-2.442-.99-1.551 0-2.475.99-.924.957-.924 2.706v9.009q0 .363-.231.594a.76.76 0 0 1-.561.231zm27.747.33q-3.795 0-6.039-2.112-2.211-2.112-2.343-6.138v-1.419q.132-2.541 1.155-4.356a6.8 6.8 0 0 1 2.871-2.805q1.848-.99 4.323-.99 2.772 0 4.62 1.155a6.97 6.97 0 0 1 2.805 3.102q.957 1.947.957 4.488v.759q0 .33-.264.561a.76.76 0 0 1-.561.231h-10.791v.264q.033 1.056.396 1.947a3.6 3.6 0 0 0 1.089 1.386q.726.528 1.716.528.825 0 1.353-.231t.858-.561q.363-.33.528-.561.297-.33.462-.396.198-.099.594-.099h3.432q.33 0 .528.198.231.165.198.495-.033.528-.561 1.32-.495.759-1.485 1.518-.99.726-2.475 1.221-1.452.495-3.366.495m-3.267-10.527h6.468v-.066q0-1.188-.396-2.046-.363-.891-1.089-1.386t-1.749-.495-1.749.495-1.122 1.386q-.363.858-.363 2.046zm17.34 16.467a.75.75 0 0 1-.495-.198.67.67 0 0 1-.165-.693 5 5 0 0 1 .099-.264l2.574-6.171-6.336-14.949a1.3 1.3 0 0 1-.099-.429.8.8 0 0 1 .231-.495.63.63 0 0 1 .495-.231h3.201q.429 0 .627.231.198.198.297.429l4.092 10.23 4.191-10.23q.132-.264.33-.462t.627-.198h3.135q.297 0 .495.231a.6.6 0 0 1 .231.462q0 .165-.132.462l-9.339 21.615q-.099.264-.33.462-.198.198-.627.198z"/></symbol><use xlink:href="#sprite-Logo" width="162" height="31" y="50"/><view id="sprite-Logo-view" viewBox="0 50 162 31"/><symbol fill="none" id="sprite-play" viewBox="0 0 72 72"><g clip-path="url(#a)"><path fill="currentColor" d="M36 0a36 36 0 1 1 0 72 36 36 0 0 1 0-72M6.75 36a29.25 29.25 0 1 0 58.5 0 29.25 29.25 0 0 0-58.5 0m21.956-12.478 19.188 11.515a1.125 1.125 0 0 1 0 1.926L28.706 48.478A1.125 1.125 0 0 1 27 47.516V24.489a1.125 1.125 0 0 1 1.706-.968"/></g><defs><clipPath id="a"><path fill="#fff" d="M0 0h72v72H0z"/></clipPath></defs></symbol><use xlink:href="#sprite-play" width="72" height="72" y="81"/><view id="sprite-play-view" viewBox="0 81 72 72"/><symbol class="iconify iconify--logos" id="sprite-vite" viewBox="0 0 256 257"><defs><linearGradient id="a" x1="-.828%" x2="57.636%" y1="7.652%" y2="78.411%"><stop offset="0%" stop-color="#41D1FF"/><stop offset="100%" stop-color="#BD34FE"/></linearGradient><linearGradient id="b" x1="43.376%" x2="50.316%" y1="2.242%" y2="89.03%"><stop offset="0%" stop-color="#FFEA83"/><stop offset="8.333%" stop-color="#FFDD35"/><stop offset="100%" stop-color="#FFA800"/></linearGradient></defs><path fill="url(#a)" d="M255.153 37.938 134.897 252.976c-2.483 4.44-8.862 4.466-11.382.048L.875 37.958c-2.746-4.814 1.371-10.646 6.827-9.67l120.385 21.517a6.5 6.5 0 0 0 2.322-.004l117.867-21.483c5.438-.991 9.574 4.796 6.877 9.62"/><path fill="url(#b)" d="M185.432.063 96.44 17.501a3.27 3.27 0 0 0-2.634 3.014l-5.474 92.456a3.268 3.268 0 0 0 3.997 3.378l24.777-5.718c2.318-.535 4.413 1.507 3.936 3.838l-7.361 36.047c-.495 2.426 1.782 4.5 4.151 3.78l15.304-4.649c2.372-.72 4.652 1.36 4.15 3.788l-11.698 56.621c-.732 3.542 3.979 5.473 5.943 2.437l1.313-2.028 72.516-144.72c1.215-2.423-.88-5.186-3.54-4.672l-25.505 4.922c-2.396.462-4.435-1.77-3.759-4.114l16.646-57.705c.677-2.35-1.37-4.583-3.769-4.113Z"/></symbol><use xlink:href="#sprite-vite" width="31.88" height="32" y="153"/><view class="iconify iconify--logos" id="sprite-vite-view" viewBox="0 153 31.88 32"/><symbol fill="none" id="sprite-envelope" viewBox="0 0 24 24"><g fill="#654D31" clip-path="url(#a)"><path d="M1.523 3.066q-.478.12-.853.464c-.323.3-.403.506-.286.754.028.066 1.078.99 2.33 2.053a964 964 0 0 1 7.823 6.704c.825.721.99.843 1.21.909.23.066.276.066.501 0 .272-.08.263-.07 1.58-1.223 1.106-.97 4.364-3.76 7.458-6.39 1.251-1.064 2.301-1.987 2.33-2.053.117-.248.037-.454-.286-.754a1.96 1.96 0 0 0-.914-.478c-.375-.08-20.57-.066-20.893.014"/><path d="M.22 6.005C-.01 6.14 0 5.859 0 12.717 0 16.82.019 19.2.047 19.36c.15.797.797 1.444 1.589 1.594.347.066 20.381.066 20.728 0a2.02 2.02 0 0 0 1.59-1.594c.027-.159.046-2.54.046-6.642 0-6.89.01-6.586-.23-6.717-.131-.07-.436-.056-.548.019-.155.108-6.413 5.442-7.89 6.726-.73.633-1.523 1.318-1.757 1.524-.666.576-1.233.787-1.852.689-.586-.094-.75-.202-2.02-1.317C8.241 12.356 1.27 6.403.825 6.056.68 5.944.37 5.916.22 6.005"/></g><defs><clipPath id="a"><path fill="#fff" d="M0 0h24v24H0z"/></clipPath></defs></symbol><use xlink:href="#sprite-envelope" width="24" height="24" y="185"/><view id="sprite-envelope-view" viewBox="0 185 24 24"/><symbol fill="none" id="sprite-phone" viewBox="0 0 24 24"><g clip-path="url(#a)"><path fill="#654D31" d="M3.54.06a3 3 0 0 0-.334.142c-.183.093-1.654 1.5-2.095 1.992C.736 2.62.384 3.272.216 3.848c-.863 2.982.914 7.393 4.814 11.949.67.778 2.704 2.78 3.525 3.464 4.397 3.66 8.536 5.302 11.489 4.552.201-.052.604-.211.886-.347.61-.3.862-.516 2.015-1.716.938-.975 1.032-1.13 1.032-1.71 0-.648.037-.6-2.4-3.03-2.016-2.005-2.161-2.146-2.405-2.226a1.6 1.6 0 0 0-1.149.047c-.215.099-.436.282-1.026.867-.975.961-1.299 1.14-2.095 1.14-.483 0-.807-.104-1.378-.422a15.5 15.5 0 0 1-4.876-4.294c-.66-.895-1.275-1.94-1.41-2.395-.165-.582-.066-1.313.248-1.82.066-.107.44-.524.839-.923.567-.576.745-.787.844-1.003.154-.342.173-.773.047-1.153-.08-.244-.22-.389-2.227-2.405C4.627.052 4.622.047 4.041.02c-.183-.01-.394.01-.502.042"/></g><defs><clipPath id="a"><path fill="#fff" d="M0 0h24v24H0z"/></clipPath></defs></symbol><use xlink:href="#sprite-phone" width="24" height="24" y="209"/><view id="sprite-phone-view" viewBox="0 209 24 24"/><symbol fill="none" id="sprite-contract" viewBox="0 0 64 64"><rect width="64" height="64" fill="#BF9E77" rx="32"/><path fill="#fff" d="M13.254 11.057c-.845.206-1.615.845-2.02 1.652l-.234.47v37.66l.263.536c.282.583.78 1.08 1.4 1.409l.403.216h26.109l.47-.254a3.15 3.15 0 0 0 1.4-1.483c.243-.517.243-.526.243-3.175 0-2.526-.009-2.658-.187-2.836-.282-.282-.78-.282-1.08.01-.179.168-.188.337-.235 2.789-.047 2.498-.057 2.61-.254 2.892-.46.648.489.601-13.44.601H13.518l-.31-.206a2.8 2.8 0 0 1-.507-.48l-.197-.262V13.423l.197-.253c.103-.141.31-.348.45-.451.254-.197.282-.197 12.97-.197s12.717 0 12.97.197c.142.103.348.31.451.45.188.245.198.414.245 3.175l.047 2.912.225.178c.291.235.798.235 1.052-.019.178-.178.188-.272.16-3.259-.029-2.996-.038-3.08-.245-3.475-.328-.62-.826-1.117-1.408-1.4l-.536-.262L26.308 11c-7.024 0-12.894.019-13.054.056"/><path fill="#fff" d="M46.642 15.01c-.658.245-1.39.742-1.775 1.221-.16.207-2.921 5.485-6.114 11.74L32.93 39.335v7.523l.234.225c.451.46.555.413 3.823-1.916l3.015-2.15 5.25-10.266c2.892-5.653 5.278-10.293 5.306-10.321.075-.085.554.272.76.563.113.17.207.432.207.592 0 .188-.91 2.066-2.63 5.42-1.493 2.93-2.629 5.25-2.629 5.39 0 .563.817.93 1.202.545.188-.188 5.222-9.993 5.429-10.566.366-1.043-.104-2.376-1.052-2.977-.245-.15-.48-.291-.526-.3-.047-.02.056-.33.225-.686.291-.61.31-.724.31-1.644 0-.91-.019-1.033-.291-1.606-.714-1.503-2.029-2.339-3.672-2.339-.489.01-.911.066-1.25.188m2.592 1.672c1.08.695 1.446 2.029.91 3.23l-.206.442-2.141-1.09c-1.174-.6-2.18-1.117-2.226-1.164-.094-.084.225-.657.592-1.061.131-.15.46-.366.713-.498.404-.197.573-.216 1.184-.188.62.029.789.075 1.174.33m-2.142 3.945c1.672.845 2.085 1.099 2.038 1.22-.103.282-9.917 19.413-9.992 19.488-.066.066-3.767-1.728-4.311-2.084-.103-.057.789-1.879 3.879-7.908 5.879-11.477 6.067-11.834 6.18-11.806.065.019 1.051.507 2.206 1.09M36.245 41.73c.911.46 1.662.864 1.662.892 0 .047-3.25 2.376-3.39 2.423-.047.019-.085-.855-.085-2.094 0-1.174.038-2.113.085-2.095.037.01.817.404 1.728.874M16.053 15.705l-.263.226v6.7620000000000005l.225.244.226.244h19.796999999999997l.226-.235.235-.225v-6.78l-.235-.226-.226-.235H16.316zm18.943 3.626v2.348h-17.75v-4.696h17.75zM16.137 26.525a.747.747 0 0 0-.037 1.22c.131.104 2.085.123 10.049.132h9.89l.225-.235c.375-.375.281-.901-.207-1.155-.15-.085-2.724-.113-9.955-.113-8.79 0-9.777.02-9.965.15M16.212 31.005c-.497.253-.544 1.042-.093 1.286.112.057 3.136.094 8.17.094h7.993l.225-.234c.31-.31.3-.658-.038-.996l-.272-.272h-7.88c-6.151 0-7.917.028-8.105.122M16.212 35.513c-.356.178-.516.572-.375.92.066.15.197.32.291.366.103.056 2.423.094 5.936.094h5.766l.197-.216c.376-.404.235-1.005-.272-1.183-.46-.16-11.223-.141-11.542.019M24.233 45.91c-.263.103-.507.45-.507.713 0 .113.084.31.197.451l.188.244h5.785l.197-.216c.207-.216.263-.563.15-.864-.15-.385-.469-.422-3.202-.413-1.437 0-2.705.038-2.808.085"/></symbol><use xlink:href="#sprite-contract" width="64" height="64" y="233"/><view id="sprite-contract-view" viewBox="0 233 64 64"/><symbol fill="none" id="sprite-deal" viewBox="0 0 64 64"><rect width="64" height="64" fill="#BF9E77" rx="32"/><path fill="#fff" d="M20.32 12.023c-.102.037-.492.39-.874.78-.595.624-.67.736-.623.968.159.641.79.753 1.367.232l.372-.334 1.395 1.385c.762.763 1.386 1.423 1.386 1.479 0 .046-2.427 2.52-5.394 5.486l-5.393 5.393-1.441-1.441-1.441-1.442 4.045-4.045c3.654-3.663 4.044-4.082 4.044-4.351 0-.456-.344-.735-.837-.68-.074.02-2.12 2-4.528 4.408C8.558 23.692 8 24.288 8 24.53c0 .233.307.577 2.12 2.39 2.371 2.371 2.4 2.39 3.022 1.841l.316-.279.53.558c.688.725.958 1.311 1.079 2.418.297 2.687 1.292 4.872 3.04 6.694l.68.716-.14.4c-.075.214-.14.68-.14 1.023 0 1.311 1.005 2.51 2.278 2.715.168.028.186.103.186.726.01 1.664 1.228 2.882 2.883 2.882.52 0 .604.019.604.168 0 .697.726 1.72 1.525 2.138.41.214.586.251 1.265.251.688 0 .855-.037 1.283-.26.279-.149.511-.251.52-.233.01.019.103.214.205.447.27.623 1.628 1.98 2.297 2.278 1.004.465 2.232.279 3.106-.456.325-.27.864-1.264.864-1.58 0-.187.047-.205.726-.196.883 0 1.553-.279 2.138-.892.363-.372.763-1.19.763-1.553 0-.13.102-.158.679-.158q1.702-.017 2.482-1.553c.233-.484.28-.679.28-1.274v-.707l.539-.158c1.44-.428 2.324-2.148 1.84-3.57l-.148-.447.632-.65c1.767-1.842 2.79-4.073 3.087-6.751.121-1.107.382-1.693 1.079-2.418l.53-.558.316.28c.623.548.651.53 3.022-1.842 1.813-1.804 2.12-2.157 2.12-2.39 0-.241-.78-1.05-6.062-6.35-3.339-3.348-6.156-6.11-6.258-6.147-.103-.046-.289-.037-.419.01-.13.037-1.153.994-2.278 2.12-1.887 1.887-2.036 2.064-2.036 2.361 0 .242.074.41.27.614l.27.279-.456.465c-.707.716-1.33 1.004-2.576 1.162-1.358.177-2.353.437-3.283.856-.409.186-.846.334-.976.334s-.567-.148-.976-.334c-.93-.419-1.925-.68-3.283-.856-1.246-.158-1.869-.446-2.575-1.162l-.456-.465.27-.279c.195-.205.27-.372.27-.614 0-.297-.15-.474-2.037-2.361-1.125-1.126-2.148-2.083-2.278-2.12a.72.72 0 0 0-.419-.02m28.203 7.095 5.411 5.411-1.44 1.442-1.433 1.431-.939-.91c-.837-.828-.948-.912-1.18-.847q-.587.14-.587.67c0 .241.093.418.419.762l.409.437-.465.465c-.967.93-1.386 1.841-1.571 3.431-.26 2.204-1.172 4.222-2.604 5.747l-.576.623-.763-.716c-.958-.902-1.534-1.181-2.427-1.181-1.506 0-2.669 1.097-2.808 2.65l-.056.53-.381.055c-1.218.196-2.222 1.219-2.371 2.427l-.056.465-.558.056a3.4 3.4 0 0 0-.976.26c-.27.14-1.32 1.107-3.022 2.8-2.241 2.231-2.65 2.594-2.948 2.65-.697.13-1.32-.14-1.608-.698-.168-.316-.186-1.041-.038-1.33.056-.111 1.377-1.478 2.92-3.04 1.841-1.841 2.845-2.93 2.883-3.087.055-.205.009-.307-.224-.549-.241-.232-.344-.279-.548-.223-.168.037-1.311 1.116-3.32 3.115-1.683 1.683-3.19 3.106-3.329 3.161-1.134.419-2.278-.613-1.924-1.739.093-.278.8-1.04 3.217-3.468 2.64-2.66 3.106-3.161 3.106-3.394 0-.362-.335-.697-.689-.697-.25 0-.623.335-3.03 2.752-3.237 3.245-3.413 3.366-4.334 2.91-.511-.241-.781-.669-.781-1.236s.084-.716.837-1.497c.716-.744.809-.949.614-1.33-.27-.52-.66-.52-1.228 0l-.427.4-.605-.642c-1.441-1.524-2.371-3.551-2.631-5.774-.186-1.59-.53-2.362-1.497-3.347l-.55-.558 4.557-4.556 4.547-4.547.586.557c1.032.986 1.646 1.256 3.357 1.479 1.897.251 3.515.874 4.9 1.906.335.251 1.702 1.553 3.04 2.901 2.12 2.13 2.437 2.492 2.502 2.8.14.79.037.929-2.687 3.663-2.102 2.092-2.595 2.538-2.901 2.622a1.42 1.42 0 0 1-1.767-1.637c.056-.306.335-.623 1.962-2.268 1.664-1.684 1.897-1.944 1.897-2.204 0-.4-.289-.67-.688-.67-.177 0-.354.047-.382.093-.037.056-.279.223-.539.372-.381.223-.595.28-1.023.28-1.125 0-1.897-.633-2.101-1.73-.112-.568.028-1.098.409-1.674.177-.26.325-.586.325-.716 0-.353-.306-.623-.688-.623-.372 0-.744.363-1.153 1.144-.232.446-.25.567-.25 1.506 0 1.004.008 1.032.352 1.674l.345.65-3.348 3.348c-2.166 2.167-3.347 3.422-3.347 3.543 0 .493.585.874 1.004.65.14-.074 1.73-1.617 3.543-3.44 3.245-3.245 3.3-3.291 3.533-3.18.13.075.381.158.549.195l.316.066-.884.892c-1.013 1.042-1.227 1.479-1.218 2.436.01 1.386 1.005 2.51 2.427 2.743.512.084 1.414-.158 1.916-.502.214-.148 1.506-1.395 2.873-2.77 2.845-2.865 2.91-2.958 2.91-4.166-.009-1.125-.158-1.367-2.138-3.385a95 95 0 0 0-2.743-2.687c-.586-.54-1.079-1.005-1.098-1.042-.028-.083 1.172-.493 1.888-.641.26-.056.828-.14 1.274-.196 1.339-.158 2.055-.492 3.031-1.431l.586-.558 3.18 3.18c3.422 3.412 3.394 3.394 3.915 2.984a.57.57 0 0 0 .242-.483c0-.27-.372-.67-3.58-3.877-1.972-1.972-3.58-3.618-3.58-3.673 0-.093 2.696-2.837 2.79-2.837.027 0 2.482 2.437 5.467 5.422m-7.328 18.197c.345.102 2.14 1.794 2.381 2.25.177.344.167.893-.037 1.283-.382.763-1.414.995-2.12.474-.716-.53-1.87-1.804-1.99-2.213-.223-.734.074-1.395.78-1.71.447-.205.55-.215.986-.084m-2.724 3.263c.298.112 2.39 2.148 2.594 2.52.196.382.168 1.06-.074 1.45-.27.447-.883.707-1.45.624-.391-.056-.53-.167-1.581-1.19-.633-.623-1.21-1.246-1.284-1.386-.195-.381-.167-1.07.066-1.441.344-.558 1.106-.818 1.73-.577m-2.966 3.004c.362.186 2.036 1.925 2.157 2.231a1.45 1.45 0 0 1-1.58 1.962c-.373-.055-.521-.167-1.433-1.05-1.283-1.265-1.44-1.609-1.115-2.437.288-.725 1.264-1.069 1.97-.706m-2.901 3.133c.502.307 1.413 1.349 1.515 1.73.168.623-.065 1.227-.604 1.6-.27.185-.4.213-.874.176-.567-.037-.567-.047-1.311-.781-.893-.874-.94-.958-.94-1.534 0-1.172 1.2-1.823 2.214-1.19"/></symbol><use xlink:href="#sprite-deal" width="64" height="64" y="297"/><view id="sprite-deal-view" viewBox="0 297 64 64"/><symbol fill="none" id="sprite-lawyer" viewBox="0 0 64 64"><rect width="64" height="64" fill="#BF9E77" rx="32"/><path fill="#fff" d="M22.896 16.11c-.429.14-1.163.891-1.294 1.337-.061.21-.105.875-.105 1.557v1.189H17.16c-3.156 0-4.442.026-4.704.105-.227.07-.525.27-.796.55-.28.271-.48.569-.55.796-.14.472-.15 6.304-.01 6.803.123.446.665 1.023 1.19 1.259.524.245 11.165 3.602 11.401 3.602.49 0 .796-.848.429-1.18-.096-.088-2.527-.9-5.395-1.802-2.877-.909-5.404-1.713-5.613-1.792-.752-.288-.709-.079-.709-3.489V22.02l.219-.21.21-.218h31.32l.21.218.218.21v6.025l-.262.218c-.271.236-.516.315-7.153 2.413-2.273.717-4.214 1.373-4.31 1.46-.367.333-.053 1.172.437 1.172.245 0 10.877-3.366 11.323-3.576.542-.271 1.023-.7 1.198-1.093.148-.323.166-.63.166-3.497 0-2.212-.035-3.244-.105-3.498-.14-.48-.866-1.206-1.347-1.346-.262-.079-1.547-.105-4.704-.105h-4.337v-1.19c0-.681-.043-1.346-.104-1.556-.14-.48-.866-1.206-1.347-1.346-.48-.14-10.685-.131-11.14.009m10.973 1.503c.21.201.219.254.219 1.4v1.18H22.896v-1.18c0-1.146.008-1.199.218-1.4l.21-.218H33.66z"/><path fill="#fff" d="m25.904 30.204-.219.218.026 2.956.027 2.946.297.551c.332.612.612.883 1.268 1.224.376.193.56.228 1.189.228.638 0 .804-.035 1.198-.236a3.04 3.04 0 0 0 1.32-1.312l.236-.455.026-2.946.026-2.956-.218-.218-.219-.219h-4.739000000000001zm3.97 3.532c-.027 2.221-.036 2.37-.21 2.597-.342.464-.621.603-1.172.603s-.83-.14-1.172-.603c-.175-.227-.183-.376-.21-2.597l-.026-2.352h2.815zM12.622 31.603l-.219.21v7.275c0 5.263.027 7.362.105 7.607.14.48.639 1.031 1.154 1.267l.446.21H25.93c6.496 0 11.882-.026 11.96-.052.22-.087.412-.542.35-.83-.122-.552.718-.517-12.223-.517H14.231l-.21-.218-.219-.21V31.813l-.218-.21a.68.68 0 0 0-.481-.218.68.68 0 0 0-.481.218M43.435 31.55c-.193.15-.21.255-.254 1.076l-.044.9-.507.062c-.533.07-1.408.359-2.71.9-1.277.534-2.413.5-3.2-.087-.167-.122-.411-.218-.534-.218-.455 0-.822.586-.63.996.114.254.753.682 1.251.84.21.061.402.131.42.14.017.017-.534 1.294-1.216 2.841l-1.25 2.825.096.603c.219 1.268.988 2.3 1.985 2.675 1.075.411 2.474.315 3.358-.236.813-.498 1.442-1.565 1.547-2.631.053-.481.035-.534-1.137-3.157a125 125 0 0 1-1.215-2.78c-.009-.079.166-.184.463-.271.263-.088.752-.28 1.085-.438.927-.42 1.678-.62 2.544-.682 1.067-.06 1.967.114 3.261.665.569.236 1.172.472 1.338.516.184.044.289.122.28.2-.017.07-.56 1.321-1.207 2.781-.708 1.6-1.18 2.763-1.18 2.93 0 .148.061.507.131.778.455 1.748 1.775 2.693 3.611 2.579 1.732-.114 2.877-1.172 3.183-2.93l.096-.602-1.233-2.79c-.682-1.538-1.206-2.815-1.171-2.85a6 6 0 0 1 .568-.254c.638-.253 1.11-.673 1.11-.996 0-.289-.428-.752-.69-.752-.097 0-.359.113-.577.253-.883.56-1.898.577-3.157.053-1.355-.56-2.177-.83-2.737-.883l-.533-.062v-.865c0-.805-.017-.883-.219-1.076a.68.68 0 0 0-.926-.052m-4.294 7.678c.446 1.005.805 1.845.805 1.88 0 .043-.752.07-1.67.07-1.556 0-1.67-.01-1.618-.158.201-.524 1.583-3.602 1.627-3.602.026 0 .41.813.857 1.81m11.14-.079c.42.944.787 1.792.822 1.871.052.149-.062.158-1.618.158-.918 0-1.67-.027-1.67-.07 0-.105 1.609-3.69 1.661-3.69.027 0 .385.778.805 1.731m-10.073 3.515c0 .192-.262.595-.56.857-.909.795-2.622.516-3.165-.525-.07-.13-.122-.28-.122-.332 0-.061.638-.087 1.924-.087 1.285 0 1.923.026 1.923.087m11.192 0c0 .192-.262.595-.56.857-.664.577-1.862.62-2.64.087-.271-.192-.647-.725-.647-.935 0-.07.568-.096 1.923-.096 1.286 0 1.924.026 1.924.087"/><path fill="#fff" d="m43.4 36.5-.219.21v10.063h-1.53c-1.513 0-1.539 0-1.749.219a.68.68 0 0 0-.218.48c0 .167.078.35.218.482l.21.218h7.537l.21-.218a.68.68 0 0 0 .052-.927c-.166-.201-.21-.21-1.748-.236l-1.583-.026V36.709l-.219-.21a.68.68 0 0 0-.48-.218.68.68 0 0 0-.481.219"/></symbol><use xlink:href="#sprite-lawyer" width="64" height="64" y="361"/><view id="sprite-lawyer-view" viewBox="0 361 64 64"/><symbol fill="none" id="sprite-fast" viewBox="0 0 64 64"><rect width="64" height="64" fill="#BF9E77" rx="32"/><path fill="#fff" d="M34.548 17.063c-6.346.602-11.655 5.157-13.209 11.327-.586 2.324-.586 5.02 0 7.344a15.09 15.09 0 0 0 9.476 10.481 14.93 14.93 0 0 0 11.64-.594c3.672-1.775 6.467-4.943 7.74-8.768 1.074-3.214 1.074-6.368 0-9.582-1.067-3.215-3.23-5.995-6.14-7.885-2.727-1.774-6.254-2.635-9.507-2.323m2.521 2.278c2.3.228 4.441 1.02 6.315 2.346.922.647 2.255 1.98 2.918 2.91.579.815 1.478 2.567 1.76 3.428.403 1.219.655 2.788.655 4.037s-.252 2.819-.655 4.037c-.282.861-1.181 2.613-1.76 3.428-.663.922-1.996 2.255-2.918 2.91-1.516 1.074-3.42 1.882-5.24 2.21-1.06.182-3.063.22-4.015.068-2.788-.442-5.104-1.592-7.077-3.504-1.85-1.806-3.054-3.977-3.64-6.612-.153-.655-.168-.968-.168-2.537 0-1.57.015-1.881.167-2.537.594-2.681 1.805-4.852 3.725-6.68 1.958-1.874 4.426-3.078 6.993-3.42 1.272-.176 1.866-.191 2.94-.084"/><path fill="#fff" d="m34.396 29.563.007 4.29 2.94 1.995 2.941 2.003.632-.929c.343-.51.617-.945.602-.967-.015-.03-1.105-.785-2.43-1.684l-2.407-1.638v-7.351h-2.285zM14.133 27.491v1.143h4.4190000000000005v-2.285h-4.42zM12 32.062v1.143h6.551v-2.286H12zM14.133 36.633v1.142h4.4190000000000005V35.49h-4.42z"/></symbol><use xlink:href="#sprite-fast" width="64" height="64" y="425"/><view id="sprite-fast-view" viewBox="0 425 64 64"/><symbol fill="none" id="sprite-profitable" viewBox="0 0 64 64"><rect width="64" height="64" fill="#BF9E77" rx="32"/><path fill="#fff" d="M28.925 14.086c-7.333.828-13.454 6.13-15.34 13.29-1.758 6.667.52 13.854 5.803 18.272 2.532 2.122 5.429 3.461 8.672 4.008 1.147.191 3.534.264 4.682.137 2.814-.31 5.638-1.285 7.806-2.697.42-.273.793-.5.81-.5.028 0 .046.655.046 1.448V49.5l.237.182c.237.182.346.192 3.225.192h2.978l.219-.237.219-.237.027-9.683.018-9.683L49.84 30l1.512-.027.219-.256c.264-.31.273-.51.045-.956-.655-1.275-6.157-10.667-6.348-10.84-.456-.4-.902-.19-1.358.656-.145.283-.319.51-.373.51-.046 0-.237-.145-.41-.328-.164-.182-.638-.583-1.038-.901-2.678-2.095-5.885-3.416-9.173-3.771-1.02-.119-2.988-.11-3.99 0m3.47 1.448c2.132.21 4.054.765 5.967 1.73 1.448.73 2.623 1.54 3.698 2.542l.738.701-.72 1.24-.72 1.238-.91-.884c-1.904-1.821-4.09-2.987-6.704-3.58-.83-.182-1.184-.209-2.815-.209-1.567.01-2.004.037-2.75.21-5.457 1.211-9.483 5.255-10.658 10.703-.274 1.266-.292 3.98-.046 5.21 1.184 5.83 5.63 10.12 11.423 11.03 1.202.183 3.698.137 4.764-.1 2.623-.573 4.882-1.776 6.768-3.588l.974-.948-.018 1.94-.027 1.94-.866.62c-1.065.765-2.842 1.694-4.062 2.114-4.254 1.475-8.745 1.211-12.744-.756-4.59-2.26-7.842-6.477-8.88-11.523-.511-2.478-.374-5.502.364-7.989 2.204-7.378 9.61-12.388 17.225-11.641m1.012 4.463c2.395.501 4.408 1.594 6.157 3.334.51.51.93.984.93 1.048 0 .072-.602 1.147-1.321 2.404-.73 1.248-1.321 2.369-1.321 2.478 0 .11.1.319.219.456l.218.255 1.558.027 1.566.036-.027 4.154-.027 4.163-.456.637c-.246.347-.856 1.048-1.366 1.558-1.749 1.758-3.771 2.833-6.34 3.38-1.066.227-3.47.227-4.545 0-5.028-1.066-8.736-4.801-9.72-9.784-.209-1.093-.209-3.334.01-4.427.956-4.9 4.682-8.708 9.491-9.71 1.248-.264 1.376-.273 2.815-.236.82.027 1.594.1 2.159.227m13.91 4.263c1.302 2.268 2.377 4.145 2.377 4.172 0 .018-.538.037-1.194.037h-1.193l-.264.264-.264.264v19.42h-3.917V29.025l-.219-.256c-.218-.255-.237-.255-1.457-.3l-1.24-.046 2.433-4.208c1.339-2.323 2.46-4.181 2.496-4.145s1.13 1.922 2.441 4.19"/><path fill="#fff" d="M30.61 22.293c-.346.2-.4.373-.41 1.239 0 .72-.027.847-.154.892-1.176.383-2.141 1.22-2.651 2.305-.292.601-.337.792-.365 1.521-.1 2.323 1.385 4.08 3.726 4.409.902.127 1.476.4 1.94.92.483.537.693 1.102.693 1.858 0 1.066-.757 2.14-1.74 2.46-1.084.364-1.986.118-2.797-.748-.4-.437-.528-.519-.792-.519-.428 0-.72.292-.72.71 0 .638 1.203 1.722 2.268 2.05l.547.173.045.884c.037.792.073.902.265 1.056a.706.706 0 0 0 .965-.054c.21-.2.228-.292.228-1.093 0-.747.018-.875.164-.92 1.667-.565 2.76-1.813 3.033-3.462.337-2.076-1.184-4.272-3.225-4.672-.264-.046-.71-.137-.992-.192-.966-.191-1.831-1.002-2.086-1.94-.228-.847.063-1.922.701-2.56 1.111-1.11 2.778-1.056 3.771.11.21.264.465.492.565.528.428.137.984-.255.984-.692 0-.292-.365-.82-.893-1.294-.446-.4-.802-.601-1.476-.81l-.5-.155-.046-.884c-.037-.792-.073-.902-.264-1.056a.66.66 0 0 0-.784-.064"/></symbol><use xlink:href="#sprite-profitable" width="64" height="64" y="489"/><view id="sprite-profitable-view" viewBox="0 489 64 64"/><symbol fill="none" id="sprite-shield" viewBox="0 0 64 64"><rect width="64" height="64" fill="#BF9E77" rx="32"/><path fill="#fff" d="M23.942 16.228 16 19.112v7.36c0 6.687.017 7.436.15 8.309.615 3.917 2.187 6.986 5.04 9.814 1.696 1.688 3.451 2.952 5.788 4.166 1.755.915 4.35 1.905 4.973 1.905.316 0 2.23-.65 3.302-1.123 2.761-1.214 5.215-2.811 7.152-4.674 3.21-3.077 5.023-6.811 5.406-11.17.058-.681.083-3.35.067-7.817l-.025-6.778-7.943-2.886c-4.366-1.588-7.959-2.886-7.984-2.886s-3.617 1.298-7.984 2.894m14.405 2.262c3.534 1.289 6.528 2.378 6.661 2.42l.225.083v5.93c0 3.518-.033 6.279-.083 6.786-.54 5.34-3.734 9.722-9.148 12.575-1.364.723-3.652 1.638-4.084 1.638-.3 0-2.187-.748-3.443-1.372-1.322-.649-2.836-1.597-3.867-2.42-3.485-2.786-5.464-6.296-5.905-10.438-.042-.44-.083-3.418-.083-6.736V21l2.894-1.056c1.588-.574 4.574-1.663 6.628-2.412 2.063-.757 3.751-1.372 3.76-1.372.016-.008 2.91 1.048 6.445 2.329"/><path fill="#fff" d="m34.114 30.64-4.85 4.849-2.203-2.204-2.204-2.204-.931.94-.94.931 3.143 3.144 3.136 3.135 5.797-5.797 5.805-5.804-.915-.915c-.5-.5-.932-.915-.957-.915s-2.22 2.179-4.881 4.84"/></symbol><use xlink:href="#sprite-shield" width="64" height="64" y="553"/><view id="sprite-shield-view" viewBox="0 553 64 64"/><symbol fill="none" id="sprite-fb" viewBox="0 0 32 32"><g clip-path="url(#a)"><path fill="#475993" d="M27.688 0H4.312A4.31 4.31 0 0 0 0 4.312v23.376A4.31 4.31 0 0 0 4.312 32h11.529l.02-11.435H12.89a.7.7 0 0 1-.701-.698l-.014-3.686a.7.7 0 0 1 .7-.704h2.966v-3.562c0-4.133 2.524-6.383 6.211-6.383h3.026c.387 0 .701.313.701.7v3.109c0 .387-.314.7-.7.7l-1.857.002c-2.006 0-2.394.952-2.394 2.35v3.084h4.406a.7.7 0 0 1 .696.784l-.437 3.686a.7.7 0 0 1-.696.618h-3.95L20.829 32h6.86A4.31 4.31 0 0 0 32 27.688V4.312A4.31 4.31 0 0 0 27.688 0"/></g><defs><clipPath id="a"><path fill="#fff" d="M0 0h32v32H0z"/></clipPath></defs></symbol><use xlink:href="#sprite-fb" width="32" height="32" y="617"/><view id="sprite-fb-view" viewBox="0 617 32 32"/><symbol fill="none" id="sprite-instagram" viewBox="0 0 32 32"><g clip-path="url(#a)"><path fill="url(#b)" d="M2 2.177C-.515 4.79 0 7.564 0 15.993c0 7-1.221 14.018 5.17 15.67 1.997.513 19.682.513 21.675-.003 2.662-.687 4.827-2.845 5.123-6.61.041-.525.041-17.58-.001-18.115-.315-4.01-2.783-6.32-6.035-6.788-.745-.108-.895-.14-4.719-.147C7.65.007 4.676-.597 2 2.177"/><path fill="#fff" d="M15.997 4.185c-4.841 0-9.438-.43-11.194 4.076-.726 1.862-.62 4.279-.62 7.74 0 3.038-.098 5.892.62 7.739 1.752 4.51 6.386 4.077 11.192 4.077 4.636 0 9.416.483 11.193-4.077.727-1.88.62-4.261.62-7.739 0-4.616.255-7.596-1.984-9.833-2.267-2.267-5.332-1.983-9.832-1.983zm-1.058 2.13c10.098-.016 11.384-1.14 10.674 14.457-.252 5.516-4.452 4.91-9.614 4.91-9.414 0-9.684-.269-9.684-9.686 0-9.527.746-9.676 8.624-9.684zm7.365 1.96a1.417 1.417 0 1 0 0 2.836 1.417 1.417 0 0 0 0-2.835m-6.307 1.658a6.068 6.068 0 0 0 0 12.135A6.065 6.065 0 0 0 22.063 16a6.067 6.067 0 0 0-6.066-6.068m0 2.13c5.207 0 5.214 7.877 0 7.877-5.205 0-5.213-7.877 0-7.877"/></g><defs><linearGradient id="b" x1="2.061" x2="31.802" y1="29.956" y2="4.216" gradientUnits="userSpaceOnUse"><stop stop-color="#FD5"/><stop offset=".5" stop-color="#FF543E"/><stop offset="1" stop-color="#C837AB"/></linearGradient><clipPath id="a"><path fill="#fff" d="M0 0h32v32H0z"/></clipPath></defs></symbol><use xlink:href="#sprite-instagram" width="32" height="32" y="649"/><view id="sprite-instagram-view" viewBox="0 649 32 32"/><symbol fill="none" id="sprite-ok" viewBox="0 0 32 32"><g clip-path="url(#a)"><path fill="#F96600" d="M27.636 0H4.364A4.364 4.364 0 0 0 0 4.364v23.272A4.364 4.364 0 0 0 4.364 32h23.272A4.364 4.364 0 0 0 32 27.636V4.364A4.364 4.364 0 0 0 27.636 0"/><path fill="#fff" d="M15.016 20.087c-1.55-.162-2.949-.545-4.145-1.48-.15-.116-.302-.229-.438-.363-.524-.504-.577-1.08-.162-1.673.354-.51.949-.646 1.569-.353q.178.09.342.207a6.79 6.79 0 0 0 7.533.07c.214-.174.461-.303.727-.379a1.15 1.15 0 0 1 1.318.526c.327.534.324 1.054-.08 1.469a6.05 6.05 0 0 1-2.19 1.416c-.804.288-1.64.476-2.488.558.127.14.182.208.269.288 1.15 1.158 2.307 2.31 3.454 3.47a1.14 1.14 0 0 1 .259 1.346 1.36 1.36 0 0 1-1.273.798 1.24 1.24 0 0 1-.81-.414c-.868-.875-1.754-1.733-2.605-2.624-.247-.258-.363-.21-.585.014-.875.91-1.764 1.788-2.656 2.668a1.116 1.116 0 0 1-1.346.242 1.36 1.36 0 0 1-.785-1.253c.026-.324.177-.626.421-.84q1.713-1.707 3.415-3.417c.076-.078.15-.16.256-.276"/><path fill="#fff" d="M15.96 16.124a5.063 5.063 0 1 1 .06-10.126 5.063 5.063 0 0 1-.06 10.126m2.514-5.068a2.477 2.477 0 1 0-1.515 2.293 2.47 2.47 0 0 0 1.515-2.293"/></g><defs><clipPath id="a"><path fill="#fff" d="M0 0h32v32H0z"/></clipPath></defs></symbol><use xlink:href="#sprite-ok" width="32" height="32" y="681"/><view id="sprite-ok-view" viewBox="0 681 32 32"/><symbol fill="none" id="sprite-tg" viewBox="0 0 32 32"><g clip-path="url(#a)"><path fill="#039BE5" d="M16 32c8.837 0 16-7.163 16-16S24.837 0 16 0 0 7.163 0 16s7.163 16 16 16"/><path fill="#fff" d="m7.321 15.653 15.427-5.948c.716-.259 1.341.175 1.11 1.258v-.002l-2.626 12.375c-.195.877-.716 1.09-1.445.677l-4-2.948-1.93 1.859c-.213.213-.393.393-.806.393l.284-4.07 7.413-6.698c.323-.284-.072-.444-.497-.161l-9.162 5.768-3.949-1.232c-.857-.272-.876-.857.181-1.27"/></g><defs><clipPath id="a"><path fill="#fff" d="M0 0h32v32H0z"/></clipPath></defs></symbol><use xlink:href="#sprite-tg" width="32" height="32" y="713"/><view id="sprite-tg-view" viewBox="0 713 32 32"/><symbol fill="none" id="sprite-vk" viewBox="0 0 32 32"><g clip-path="url(#a)"><path fill="#2787F5" d="M0 15.333C0 8.105 0 4.491 2.246 2.246 4.49 0 8.105 0 15.333 0h1.334c7.228 0 10.842 0 13.087 2.246C32 4.49 32 8.105 32 15.333v1.334c0 7.228 0 10.842-2.246 13.087C27.51 32 23.894 32 16.667 32h-1.334c-7.228 0-10.842 0-13.087-2.245C0 27.509 0 23.895 0 16.667z"/><path fill="#fff" fill-rule="evenodd" d="M8.667 10H6.333c-.666 0-.8.314-.8.66 0 .618.791 3.683 3.684 7.737 1.929 2.769 4.646 4.27 7.119 4.27 1.483 0 1.667-.334 1.667-.908v-2.092c0-.667.14-.8.61-.8.346 0 .94.173 2.324 1.508 1.583 1.582 1.844 2.292 2.734 2.292h2.334c.666 0 1-.334.808-.992-.211-.655-.966-1.606-1.97-2.734-.543-.643-1.359-1.335-1.606-1.68-.346-.446-.247-.644 0-1.04 0 0 2.843-4.004 3.14-5.363.148-.495 0-.858-.706-.858h-2.334c-.593 0-.867.314-1.015.66 0 0-1.187 2.892-2.868 4.77-.544.545-.791.718-1.088.718-.149 0-.363-.173-.363-.668v-4.622c0-.594-.172-.858-.667-.858h-3.668c-.37 0-.593.275-.593.536 0 .563.84.692.927 2.274v3.437c0 .753-.136.89-.433.89-.791 0-2.716-2.906-3.857-6.23-.224-.646-.448-.907-1.045-.907" clip-rule="evenodd"/></g><defs><clipPath id="a"><path fill="#fff" d="M0 0h32v32H0z"/></clipPath></defs></symbol><use xlink:href="#sprite-vk" width="32" height="32" y="745"/><view id="sprite-vk-view" viewBox="0 745 32 32"/><symbol fill="none" id="sprite-yt" viewBox="0 0 32 32"><g clip-path="url(#a)"><path fill="red" d="M31.34 8.318a4.01 4.01 0 0 0-2.82-2.82C26.016 4.812 16 4.812 16 4.812s-10.017 0-12.52.66C2.134 5.84 1.027 6.948.658 8.318 0 10.822 0 16.015 0 16.015s0 5.22.659 7.697a4.01 4.01 0 0 0 2.82 2.82c2.53.686 12.52.686 12.52.686s10.017 0 12.521-.66a4.01 4.01 0 0 0 2.82-2.82c.66-2.504.66-7.696.66-7.696s.026-5.22-.66-7.724"/><path fill="#fff" d="m12.81 20.813 8.33-4.798-8.33-4.797z"/></g><defs><clipPath id="a"><path fill="#fff" d="M0 0h32v32H0z"/></clipPath></defs></symbol><use xlink:href="#sprite-yt" width="32" height="32" y="777"/><view id="sprite-yt-view" viewBox="0 777 32 32"/></svg>