<svg width="30" height="36" viewBox="0 0 30 36" fill="none" xmlns="http://www.w3.org/2000/svg">
<path fill-rule="evenodd" clip-rule="evenodd" d="M6.69769 1.25581C6.69769 0.562246 7.25993 0 7.9535 0H21.3488C22.0424 0 22.6046 0.562246 22.6046 1.25581V4.60465C22.6046 6.22297 21.2927 7.53488 19.6744 7.53488H9.62792C8.0096 7.53488 6.69769 6.22297 6.69769 4.60465V1.25581ZM9.20931 2.51163V4.60465C9.20931 4.83583 9.39673 5.02325 9.62792 5.02325H19.6744C19.9056 5.02325 20.093 4.83583 20.093 4.60465V2.51163H9.20931Z" fill="black"/>
<path fill-rule="evenodd" clip-rule="evenodd" d="M4.60465 2.51163C3.4487 2.51163 2.51163 3.4487 2.51163 4.60465V31.3953C2.51163 32.5513 3.4487 33.4883 4.60465 33.4883H16.3256C17.0191 33.4883 17.5814 34.0506 17.5814 34.7441C17.5814 35.4377 17.0191 36 16.3256 36H4.60465C2.06157 36 0 33.9384 0 31.3953V4.60465C0 2.06157 2.06157 0 4.60465 0H24.6976C27.2407 0 29.3023 2.06157 29.3023 4.60465V31.3953C29.3023 33.9384 27.2407 36 24.6976 36H23.0232C22.3297 36 21.7674 35.4377 21.7674 34.7441C21.7674 34.0506 22.3297 33.4883 23.0232 33.4883H24.6976C25.8536 33.4883 26.7907 32.5513 26.7907 31.3953V4.60465C26.7907 3.4487 25.8536 2.51163 24.6976 2.51163H4.60465Z" fill="black"/>
<path fill-rule="evenodd" clip-rule="evenodd" d="M22.2368 13.7631C22.7273 14.2535 22.7273 15.0486 22.2368 15.5391L13.8647 23.9111C13.3743 24.4016 12.5792 24.4016 12.0888 23.9111L7.06551 18.8879C6.57508 18.3975 6.57508 17.6023 7.06551 17.1119C7.55593 16.6215 8.35107 16.6215 8.84149 17.1119L12.9767 21.2472L20.4608 13.7631C20.9513 13.2726 21.7464 13.2726 22.2368 13.7631Z" fill="black"/>
</svg>
