<svg width="24" height="24" viewBox="0 0 24 24" fill="none" xmlns="http://www.w3.org/2000/svg">
<mask id="mask0_11802_2144" style="mask-type:luminance" maskUnits="userSpaceOnUse" x="-1" y="0" width="25" height="25">
<path d="M-0.188977 1.92237e-06H24V24.189H-0.188977V1.92237e-06Z" fill="white"/>
</mask>
<g mask="url(#mask0_11802_2144)">
<path d="M0.755906 0.944862H4.47241L6.33072 4.66142V12.6388C6.33072 13.4801 6.66492 14.287 7.25982 14.8819C7.85472 15.4768 8.6616 15.811 9.50297 15.811H16.7106C18.3933 15.811 20.007 15.1426 21.1968 13.9528C22.3867 12.7629 23.0551 11.1492 23.0551 9.46652V4.66142M17.9449 18.5984C16.662 18.5984 15.622 19.6384 15.622 20.9213C15.622 22.2042 16.662 23.2441 17.9449 23.2441C19.2277 23.2441 20.2677 22.2042 20.2677 20.9213C20.2677 19.6384 19.2277 18.5984 17.9449 18.5984ZM9.5701 18.5984C8.28724 18.5984 7.24725 19.6384 7.24725 20.9213C7.24725 22.2042 8.28724 23.2441 9.5701 23.2441C10.853 23.2441 11.8929 22.2042 11.8929 20.9213C11.8929 19.6384 10.853 18.5984 9.5701 18.5984Z" stroke="black" stroke-width="1.5" stroke-miterlimit="10" stroke-linecap="round" stroke-linejoin="round"/>
</g>
<path d="M10.4862 1.63936C8.33551 3.81342 8.3472 7.33165 10.5213 9.48233C12.6953 11.633 16.2135 11.6213 18.3642 9.44727C20.5149 7.27321 20.5032 3.75497 18.3292 1.60429C16.1551 -0.546389 12.6369 -0.534701 10.4862 1.63936ZM17.1253 4.47966L14.1096 7.53036C13.8525 7.7875 13.4317 7.7875 13.1745 7.53036L13.0577 7.41347L12.707 7.06282L11.7252 6.09267C11.468 5.83552 11.468 5.41474 11.7252 5.15759C11.9823 4.90045 12.4031 4.90045 12.6602 5.15759L13.6421 6.12774L16.1902 3.55627C16.4473 3.29912 16.8681 3.29912 17.1253 3.55627C17.3824 3.80173 17.3824 4.22251 17.1253 4.47966Z" fill="black"/>
</svg>
