<svg width="24" height="21" viewBox="0 0 24 21" fill="none" xmlns="http://www.w3.org/2000/svg">
<mask id="mask0_11802_2143" style="mask-type:luminance" maskUnits="userSpaceOnUse" x="-1" y="-2" width="25" height="25">
<path d="M-0.187736 -1.88798H24V22.2998H-0.187736V-1.88798Z" fill="white"/>
</mask>
<g mask="url(#mask0_11802_2143)">
<path d="M23.0539 6.67298C23.0539 3.46433 20.9299 0.755869 17.5739 0.755869C13.2655 0.755869 11.9049 5.48003 11.9049 5.48003C11.9049 5.48003 10.5443 0.755869 6.2359 0.755869C2.87985 0.755869 0.755867 3.46433 0.755867 6.67298C0.755867 11.1106 5.18076 14.0491 11.9049 19.6525" stroke="black" stroke-width="1.5" stroke-miterlimit="10" stroke-linecap="round" stroke-linejoin="round"/>
</g>
<path d="M14.5182 10.8373C12.3676 13.0113 12.3793 16.5293 14.5532 18.6799C16.7272 20.8305 20.2452 20.8188 22.3958 18.6448C24.5464 16.4709 24.5347 12.9528 22.3607 10.8023C20.1868 8.6517 16.6687 8.66339 14.5182 10.8373ZM21.1569 13.6775L18.1414 16.728C17.8843 16.9852 17.4635 16.9852 17.2064 16.728L17.0895 16.6111L16.7389 16.2605L15.7571 15.2904C15.4999 15.0333 15.4999 14.6125 15.7571 14.3554C16.0142 14.0983 16.435 14.0983 16.6921 14.3554L17.6739 15.3255L20.2218 12.7541C20.479 12.497 20.8997 12.497 21.1569 12.7541C21.414 12.9996 21.414 13.4204 21.1569 13.6775Z" fill="black"/>
</svg>
