<svg width="21" height="32" viewBox="0 0 21 32" fill="none" xmlns="http://www.w3.org/2000/svg">
<path d="M16.9746 7.80631L17.2788 5.92375L15.4423 5.48739L15.0093 3.62798L13.1447 3.93521L12.0402 2.38303L10.4307 3.38932L8.82305 2.38303L7.71765 3.9361L5.8531 3.62887L5.42006 5.48828L3.58357 5.92464L3.88687 7.8072L2.3572 8.92035L3.34951 10.5393L2.3572 12.1601L3.88687 13.2714L3.58357 15.154L5.42006 15.5904L5.8531 17.4507L7.71765 17.1434L8.82217 18.6947L10.4307 17.6884L12.0393 18.6947L13.1447 17.1434L15.0093 17.4507L15.4423 15.5904L17.2788 15.154L16.9746 13.2714L18.5052 12.1592L17.5129 10.5393L18.5052 8.91946L16.9746 7.80631ZM11.4573 20.4214L14.0476 28.0247L15.1635 26.3238L17.6496 26.9561L14.7936 19.2174L13.931 19.0759L12.5057 21.0777L11.4573 20.4214ZM16.5021 18.774L20.4644 29.5065L15.9376 28.3569L13.5471 31.9991L10.3606 22.6495L7.17503 32L4.78452 28.3569L0.257722 29.5056L4.30589 18.5415L3.96402 17.0722L1.58841 16.5085L1.98113 14.0747L0 12.6347L1.28423 10.5384L0 8.44214L1.98113 7.00217L1.58841 4.56926L3.96402 4.00467L4.52241 1.60472L6.93133 2.001L8.35582 0L10.4316 1.29749L12.5057 0L13.931 2.001L16.34 1.60472L16.8984 4.00467L19.274 4.56926L18.8812 7.00217L20.8632 8.44214L19.5781 10.5384L20.8632 12.6347L18.8821 14.0747L19.2748 16.5085L16.8992 17.0731L16.5021 18.774ZM9.22716 20.5327L8.35582 21.0777L6.93133 19.0759L5.91885 19.2424L3.07163 26.9561L5.55856 26.3238L6.67448 28.0247L9.22716 20.5327ZM10.4307 16.6545C12.0582 16.6545 13.619 15.9978 14.7697 14.8287C15.9205 13.6597 16.567 12.0741 16.567 10.4209C16.567 8.76761 15.9205 7.18206 14.7697 6.01302C13.619 4.84399 12.0582 4.18723 10.4307 4.18723C8.80331 4.18723 7.24253 4.84399 6.09176 6.01302C4.94099 7.18206 4.2945 8.76761 4.2945 10.4209C4.2945 12.0741 4.94099 13.6597 6.09176 14.8287C7.24253 15.9978 8.80331 16.6545 10.4307 16.6545ZM10.4307 14.8735C9.26829 14.8735 8.15345 14.4044 7.33147 13.5693C6.50949 12.7343 6.04771 11.6018 6.04771 10.4209C6.04771 9.23997 6.50949 8.10744 7.33147 7.27241C8.15345 6.43738 9.26829 5.96827 10.4307 5.96827C11.5932 5.96827 12.708 6.43738 13.53 7.27241C14.352 8.10744 14.8138 9.23997 14.8138 10.4209C14.8138 11.6018 14.352 12.7343 13.53 13.5693C12.708 14.4044 11.5932 14.8735 10.4307 14.8735ZM10.4307 6.85879C9.50078 6.85879 8.60891 7.23408 7.95133 7.9021C7.29374 8.57013 6.92432 9.47615 6.92432 10.4209H8.67753C8.67753 9.94852 8.86224 9.4955 9.19104 9.16149C9.51983 8.82748 9.96576 8.63984 10.4307 8.63984V6.85879Z" fill="#8C0014"/>
</svg>
