<svg width="32" height="19" viewBox="0 0 32 19" fill="none" xmlns="http://www.w3.org/2000/svg">
<g clip-path="url(#clip0_11783_320)">
<path d="M11.566 13.5303H21.2364V2.01515H3.78182V13.5303H5.25615C5.93629 12.4726 7.11214 11.803 8.41135 11.803C9.71054 11.803 10.8858 12.4726 11.566 13.5303ZM22.9818 8.49242V13.5188C23.7935 12.4231 25.074 11.7512 26.4727 11.7512C27.8714 11.7512 29.152 12.4231 29.9636 13.5188V10.6515H27.3455V8.92424H28.5946C28.4131 8.78606 28.2153 8.64212 28.0012 8.49242H22.9818ZM22.9818 6.76515H26.8439L26.0061 5.0563C25.9823 5.00764 25.9451 4.9666 25.8988 4.93788C25.8525 4.90917 25.7989 4.89394 25.7443 4.89394H22.9818V6.76515ZM28.8 16.9848H32V18.7121H15.1273V16.9848H15.2273V18.7121H15.1273V16.9848H24.1455C23.767 16.4869 23.5628 15.8806 23.5636 15.2576H11.3455C11.3463 15.8806 11.1421 16.4869 10.7636 16.9848H12.8V18.7121H2.90909V16.9848H2.96727V18.7121H2.90909V16.9848H6.10909C5.73067 16.4869 5.52643 15.8806 5.52727 15.2576H2.03636V0.28788H22.9818V3.16667H25.7443C26.1265 3.16676 26.5009 3.27329 26.8248 3.47407C27.1487 3.67486 27.409 3.96179 27.5759 4.30206L28.9036 7.00812C30.7764 8.30358 31.7091 9.28582 31.7091 10.2589V15.2576H29.3818C29.3827 15.8806 29.1784 16.4869 28.8 16.9848ZM8.43636 16.4091C8.74498 16.4091 9.04095 16.2878 9.25918 16.0718C9.4774 15.8559 9.6 15.563 9.6 15.2576C9.6 14.9522 9.4774 14.6593 9.25918 14.4433C9.04095 14.2274 8.74498 14.1061 8.43636 14.1061C8.12775 14.1061 7.83177 14.2274 7.61355 14.4433C7.39532 14.6593 7.27273 14.9522 7.27273 15.2576C7.27273 15.563 7.39532 15.8559 7.61355 16.0718C7.83177 16.2878 8.12775 16.4091 8.43636 16.4091ZM26.4727 16.4091C26.7813 16.4091 27.0773 16.2878 27.2955 16.0718C27.5138 15.8559 27.6364 15.563 27.6364 15.2576C27.6364 14.9522 27.5138 14.6593 27.2955 14.4433C27.0773 14.2274 26.7813 14.1061 26.4727 14.1061C26.1641 14.1061 25.8681 14.2274 25.6499 14.4433C25.4317 14.6593 25.3091 14.9522 25.3091 15.2576C25.3091 15.563 25.4317 15.8559 25.6499 16.0718C25.8681 16.2878 26.1641 16.4091 26.4727 16.4091ZM3.78182 6.62121H5.23636V4.89394H3.78182V6.62121ZM3.78182 9.21212H6.4V7.48485H3.78182V9.21212ZM1.74545 16.9848V18.7121H0V16.9848H0.0104727V18.7121H0V16.9848H1.74545ZM15.2361 4.0303L13.6134 6.24812L11.9825 4.0303H8.14545V4.96533H8.81571V8.77973H8.14545V9.71361H10.5751V8.7803H9.89673V6.308L12.4044 9.71418L14.9009 6.308V8.7803H14.2225V9.71418H18.6182V8.7803H17.9404V4.96533H18.6182V4.0303H15.2361Z" fill="#8C0014"/>
</g>
<defs>
<clipPath id="clip0_11783_320">
<rect width="32" height="19" fill="white"/>
</clipPath>
</defs>
</svg>
