<svg width="31" height="36" viewBox="0 0 31 36" fill="none" xmlns="http://www.w3.org/2000/svg">
<path fill-rule="evenodd" clip-rule="evenodd" d="M0 6.27906C0 2.81123 2.81123 0 6.27906 0H26.3721C27.0656 0 27.6279 0.562246 27.6279 1.25581C27.6279 1.94938 27.0656 2.51163 26.3721 2.51163H6.27906C4.19836 2.51163 2.51163 4.19836 2.51163 6.27906V23.8604C2.51163 24.554 1.94938 25.1163 1.25581 25.1163C0.562246 25.1163 0 24.554 0 23.8604V6.27906ZM23.0232 6.69767C23.7168 6.69767 24.279 7.25991 24.279 7.95348V34.7441C24.279 35.1251 24.1062 35.4854 23.809 35.7237C23.5119 35.9621 23.1226 36.0527 22.7508 35.9701L19.2638 35.1952L15.9853 35.9666C15.7961 36.0111 15.5992 36.0111 15.41 35.9666L12.1395 35.197L8.86902 35.9666C8.67985 36.0111 8.48292 36.0111 8.29375 35.9666L5.01525 35.1952L1.52824 35.9701C1.15639 36.0527 0.767144 35.9621 0.470016 35.7237C0.172888 35.4854 0 35.1251 0 34.7441V30.5581C0 29.8645 0.562246 29.3023 1.25581 29.3023C1.94938 29.3023 2.51163 29.8645 2.51163 30.5581V33.1786L4.75083 32.681C4.93539 32.64 5.12684 32.6412 5.31088 32.6845L8.58138 33.454L11.8519 32.6845C12.0411 32.64 12.238 32.64 12.4272 32.6845L15.6977 33.454L18.9682 32.6845C19.1522 32.6412 19.3436 32.64 19.5282 32.681L21.7674 33.1786V7.95348C21.7674 7.25991 22.3297 6.69767 23.0232 6.69767Z" fill="black"/>
<path fill-rule="evenodd" clip-rule="evenodd" d="M5.86038 26.3721C5.86038 25.6785 6.42262 25.1163 7.11619 25.1163H17.1627C17.8563 25.1163 18.4185 25.6785 18.4185 26.3721C18.4185 27.0656 17.8563 27.6279 17.1627 27.6279H7.11619C6.42262 27.6279 5.86038 27.0656 5.86038 26.3721Z" fill="black"/>
<path fill-rule="evenodd" clip-rule="evenodd" d="M21.7674 4.60465C21.7674 2.06157 23.8289 0 26.372 0C28.9151 0 30.9767 2.06157 30.9767 4.60465V12.9767C30.9767 13.6703 30.4144 14.2325 29.7209 14.2325H23.0232C22.3296 14.2325 21.7674 13.6703 21.7674 12.9767V4.60465ZM26.372 2.51163C25.2161 2.51163 24.279 3.4487 24.279 4.60465V11.7209H28.465V4.60465C28.465 3.4487 27.528 2.51163 26.372 2.51163Z" fill="black"/>
<path fill-rule="evenodd" clip-rule="evenodd" d="M7.53488 10.8837C7.53488 9.0342 9.0342 7.53488 10.8837 7.53488H15.4884C16.1819 7.53488 16.7442 8.09712 16.7442 8.79069C16.7442 9.48425 16.1819 10.0465 15.4884 10.0465H10.8837C10.4213 10.0465 10.0465 10.4213 10.0465 10.8837C10.0465 11.3461 10.4213 11.7209 10.8837 11.7209H13.3953C15.2448 11.7209 16.7442 13.2202 16.7442 15.0698C16.7442 16.9193 15.2448 18.4186 13.3953 18.4186H8.79069C8.09712 18.4186 7.53488 17.8563 7.53488 17.1628C7.53488 16.4692 8.09712 15.907 8.79069 15.907H13.3953C13.8577 15.907 14.2325 15.5321 14.2325 15.0698C14.2325 14.6074 13.8577 14.2325 13.3953 14.2325H10.8837C9.0342 14.2325 7.53488 12.7332 7.53488 10.8837Z" fill="black"/>
<path fill-rule="evenodd" clip-rule="evenodd" d="M12.1394 5.02325C12.833 5.02325 13.3953 5.5855 13.3953 6.27906V8.79069C13.3953 9.48425 12.833 10.0465 12.1394 10.0465C11.4459 10.0465 10.8836 9.48425 10.8836 8.79069V6.27906C10.8836 5.5855 11.4459 5.02325 12.1394 5.02325Z" fill="black"/>
<path fill-rule="evenodd" clip-rule="evenodd" d="M12.1394 15.9069C12.833 15.9069 13.3953 16.4691 13.3953 17.1627V19.6743C13.3953 20.3679 12.833 20.9301 12.1394 20.9301C11.4459 20.9301 10.8836 20.3679 10.8836 19.6743V17.1627C10.8836 16.4691 11.4459 15.9069 12.1394 15.9069Z" fill="black"/>
</svg>
