<svg width="36" height="34" viewBox="0 0 36 34" fill="none" xmlns="http://www.w3.org/2000/svg">
<path fill-rule="evenodd" clip-rule="evenodd" d="M4.60465 8.37201C3.44871 8.37201 2.51163 9.30909 2.51163 10.465V28.8836C2.51163 30.0396 3.44871 30.9767 4.60465 30.9767H23.8605C24.554 30.9767 25.1163 31.5389 25.1163 32.2325C25.1163 32.926 24.554 33.4883 23.8605 33.4883H4.60465C2.06157 33.4883 0 31.4267 0 28.8836V10.465C0 7.92196 2.06157 5.86038 4.60465 5.86038H13.814C14.5075 5.86038 15.0698 6.42263 15.0698 7.1162C15.0698 7.80976 14.5075 8.37201 13.814 8.37201H4.60465ZM20.9302 7.1162C20.9302 6.42263 21.4925 5.86038 22.186 5.86038H31.3953C33.9384 5.86038 36 7.92196 36 10.465V28.8836C36 31.4267 33.9384 33.4883 31.3953 33.4883H30.5581C29.8646 33.4883 29.3023 32.926 29.3023 32.2325C29.3023 31.5389 29.8646 30.9767 30.5581 30.9767H31.3953C32.5513 30.9767 33.4884 30.0396 33.4884 28.8836V10.465C33.4884 9.30909 32.5513 8.37201 31.3953 8.37201H22.186C21.4925 8.37201 20.9302 7.80976 20.9302 7.1162Z" fill="black"/>
<path fill-rule="evenodd" clip-rule="evenodd" d="M13.3953 1.25581C13.3953 0.562247 13.9576 0 14.6512 0H21.3488C22.0424 0 22.6046 0.562247 22.6046 1.25581V7.95349C22.6046 10.4966 20.5431 12.5581 18 12.5581C15.4569 12.5581 13.3953 10.4966 13.3953 7.95349V1.25581ZM15.907 2.51163V7.95349C15.907 9.10943 16.844 10.0465 18 10.0465C19.1559 10.0465 20.093 9.10943 20.093 7.95349V2.51163H15.907Z" fill="black"/>
<path fill-rule="evenodd" clip-rule="evenodd" d="M19.2558 16.3256C19.2558 15.632 19.8181 15.0698 20.5116 15.0698L25.5349 15.0698C26.2284 15.0698 26.7907 15.632 26.7907 16.3256C26.7907 17.0191 26.2284 17.5814 25.5349 17.5814H20.5116C19.8181 17.5814 19.2558 17.0191 19.2558 16.3256Z" fill="black"/>
<path fill-rule="evenodd" clip-rule="evenodd" d="M19.2558 22.186C19.2558 21.4924 19.8181 20.9301 20.5116 20.9301H30.5581C31.2517 20.9301 31.8139 21.4924 31.8139 22.186C31.8139 22.8795 31.2517 23.4418 30.5581 23.4418H20.5116C19.8181 23.4418 19.2558 22.8795 19.2558 22.186Z" fill="black"/>
<path fill-rule="evenodd" clip-rule="evenodd" d="M11.3023 15.9069C10.1464 15.9069 9.2093 16.844 9.2093 17.9999C9.2093 19.1559 10.1464 20.0929 11.3023 20.0929C12.4583 20.0929 13.3953 19.1559 13.3953 17.9999C13.3953 16.844 12.4583 15.9069 11.3023 15.9069ZM6.69767 17.9999C6.69767 15.4568 8.75924 13.3953 11.3023 13.3953C13.8454 13.3953 15.907 15.4568 15.907 17.9999C15.907 20.543 13.8454 22.6046 11.3023 22.6046C8.75924 22.6046 6.69767 20.543 6.69767 17.9999Z" fill="black"/>
<path fill-rule="evenodd" clip-rule="evenodd" d="M11.3023 24.279C9.22162 24.279 7.53488 25.9658 7.53488 28.0465C7.53488 28.74 6.97264 29.3023 6.27907 29.3023C5.5855 29.3023 5.02326 28.74 5.02326 28.0465C5.02326 24.5786 7.83449 21.7674 11.3023 21.7674C14.7702 21.7674 17.5814 24.5786 17.5814 28.0465C17.5814 28.74 17.0191 29.3023 16.3256 29.3023C15.632 29.3023 15.0698 28.74 15.0698 28.0465C15.0698 25.9658 13.383 24.279 11.3023 24.279Z" fill="black"/>
</svg>
