<svg width="36" height="34" viewBox="0 0 36 34" fill="none" xmlns="http://www.w3.org/2000/svg">
<path fill-rule="evenodd" clip-rule="evenodd" d="M0 1.25581C0 0.562247 0.562247 0 1.25581 0H5.44186C6.13543 0 6.69768 0.562247 6.69768 1.25581C6.69768 1.94938 6.13543 2.51163 5.44186 2.51163H2.51163V20.093H15.4884C16.1819 20.093 16.7442 20.6553 16.7442 21.3488C16.7442 22.0424 16.1819 22.6047 15.4884 22.6047H1.25581C0.562247 22.6047 0 22.0424 0 21.3488V1.25581ZM10.8837 1.25581C10.8837 0.562247 11.446 0 12.1395 0H34.7442C35.4378 0 36 0.562247 36 1.25581V9.62791C36 10.3215 35.4378 10.8837 34.7442 10.8837C34.0506 10.8837 33.4884 10.3215 33.4884 9.62791V2.51163H12.1395C11.446 2.51163 10.8837 1.94938 10.8837 1.25581Z" fill="black"/>
<path fill-rule="evenodd" clip-rule="evenodd" d="M5.02326 6.27907C5.02326 5.58551 5.58551 5.02326 6.27907 5.02326H29.7209C30.4145 5.02326 30.9768 5.58551 30.9768 6.27907C30.9768 6.97264 30.4145 7.53489 29.7209 7.53489H6.27907C5.58551 7.53489 5.02326 6.97264 5.02326 6.27907Z" fill="black"/>
<path fill-rule="evenodd" clip-rule="evenodd" d="M25.0708 11.2892C25.9995 10.0643 27.8409 10.0643 28.7697 11.2892L29.7598 12.5949L31.3831 12.3717C32.906 12.1623 34.2081 13.4644 33.9987 14.9872L33.7755 16.6106L35.0812 17.6007C36.3061 18.5295 36.3061 20.3709 35.0812 21.2996L33.7755 22.2897L33.9987 23.9131C34.2081 25.4359 32.906 26.738 31.3831 26.5286L29.7598 26.3054L28.7697 27.6111C27.8409 28.836 25.9995 28.836 25.0708 27.6111L24.0807 26.3054L22.4573 26.5286C20.9345 26.738 19.6324 25.4359 19.8418 23.9131L20.065 22.2897L18.7593 21.2996C17.5344 20.3709 17.5344 18.5295 18.7593 17.6007L20.065 16.6106L19.8418 14.9872C19.6324 13.4644 20.9345 12.1623 22.4573 12.3717L24.0807 12.5949L25.0708 11.2892ZM26.7686 12.807L26.7683 12.8067L26.9202 12.6915L26.7683 12.8067C26.7684 12.8068 26.7685 12.8069 26.7686 12.807ZM26.9202 13.007L27.8258 14.2013C28.3326 14.8696 29.1605 15.2126 29.9914 15.0983L31.4762 14.8942L31.2721 16.379C31.1578 17.2099 31.5008 18.0378 32.1691 18.5446L33.3634 19.4502L32.1691 20.3557C31.5008 20.8625 31.1578 21.6904 31.2721 22.5213L31.4762 24.0061L29.9914 23.802C29.1605 23.6877 28.3326 24.0307 27.8258 24.699L26.9202 25.8933L26.0147 24.699C25.5079 24.0307 24.68 23.6877 23.8491 23.802L22.3642 24.0061L22.5684 22.5213C22.6826 21.6904 22.3397 20.8625 21.6714 20.3557L20.4771 19.4502L21.6714 18.5446C22.3397 18.0378 22.6826 17.2099 22.5684 16.379L22.3642 14.8942L23.8491 15.0983C24.68 15.2126 25.5079 14.8696 26.0147 14.2013L26.9202 13.007ZM33.5637 19.2983L33.5633 19.2986L33.5637 19.2983Z" fill="black"/>
<path fill-rule="evenodd" clip-rule="evenodd" d="M22.1272 24.0529C22.8208 24.0529 23.383 24.6151 23.383 25.3087V30.3001L26.4106 28.9545C26.7353 28.8102 27.106 28.8102 27.4307 28.9545L30.4582 30.3001V25.3087C30.4582 24.6151 31.0205 24.0529 31.714 24.0529C32.4076 24.0529 32.9699 24.6151 32.9699 25.3087V32.2325C32.9699 32.6576 32.7548 33.0539 32.3984 33.2855C32.0419 33.5172 31.5925 33.5528 31.204 33.3801L26.9206 31.4764L22.6373 33.3801C22.2488 33.5528 21.7994 33.5172 21.4429 33.2855C21.0865 33.0539 20.8714 32.6576 20.8714 32.2325V25.3087C20.8714 24.6151 21.4337 24.0529 22.1272 24.0529Z" fill="black"/>
</svg>
