<svg width="36" height="20" viewBox="0 0 36 20" fill="none" xmlns="http://www.w3.org/2000/svg">
<path fill-rule="evenodd" clip-rule="evenodd" d="M8.05489 2.84086C8.45373 1.64432 9.57349 0.837249 10.8347 0.837249H17.1628C17.8563 0.837249 18.4186 1.3995 18.4186 2.09306V2.93027C18.4186 3.62384 17.8563 4.18608 17.1628 4.18608C16.616 4.18608 16.1508 3.83663 15.9784 3.34887H10.8347C10.6546 3.34887 10.4946 3.46417 10.4376 3.6351L9.14485 7.51343C8.97391 8.02624 8.49402 8.37212 7.95348 8.37212H2.51163V14.2326H4.60465C5.29821 14.2326 5.86046 14.7948 5.86046 15.4884C5.86046 16.182 5.29821 16.7442 4.60465 16.7442H1.25581C0.562246 16.7442 0 16.182 0 15.4884V7.11631C0 6.42275 0.562246 5.8605 1.25581 5.8605H7.04834L8.05489 2.84086ZM17.1628 8.37212C17.8563 8.37212 18.4186 8.93437 18.4186 9.62794V15.4884C18.4186 16.182 17.8563 16.7442 17.1628 16.7442H9.6279C8.93433 16.7442 8.37208 16.182 8.37208 15.4884C8.37208 14.7948 8.93433 14.2326 9.6279 14.2326H15.907V9.62794C15.907 8.93437 16.4692 8.37212 17.1628 8.37212Z" fill="black"/>
<path fill-rule="evenodd" clip-rule="evenodd" d="M36 15.4884C36 14.7949 35.4378 14.2326 34.7442 14.2326H33.0698C32.3762 14.2326 31.814 14.7949 31.814 15.4884C31.814 16.182 32.3762 16.7442 33.0698 16.7442H34.7442C35.4378 16.7442 36 16.182 36 15.4884ZM21.7675 15.4884C21.7675 14.7949 21.2052 14.2326 20.5116 14.2326H14.6512C13.9576 14.2326 13.3954 14.7949 13.3954 15.4884C13.3954 16.182 13.9576 16.7442 14.6512 16.7442H20.5116C21.2052 16.7442 21.7675 16.182 21.7675 15.4884Z" fill="black"/>
<path fill-rule="evenodd" clip-rule="evenodd" d="M7.11631 14.2326C6.42275 14.2326 5.8605 14.7949 5.8605 15.4884C5.8605 16.182 6.42275 16.7442 7.11631 16.7442C7.80988 16.7442 8.37212 16.182 8.37212 15.4884C8.37212 14.7949 7.80988 14.2326 7.11631 14.2326ZM3.34887 15.4884C3.34887 13.4077 5.03561 11.721 7.11631 11.721C9.19701 11.721 10.8837 13.4077 10.8837 15.4884C10.8837 17.5691 9.19701 19.2559 7.11631 19.2559C5.03561 19.2559 3.34887 17.5691 3.34887 15.4884Z" fill="black"/>
<path fill-rule="evenodd" clip-rule="evenodd" d="M30.5582 14.2326C29.8646 14.2326 29.3024 14.7949 29.3024 15.4884C29.3024 16.182 29.8646 16.7442 30.5582 16.7442C31.2518 16.7442 31.814 16.182 31.814 15.4884C31.814 14.7949 31.2518 14.2326 30.5582 14.2326ZM26.7907 15.4884C26.7907 13.4077 28.4775 11.721 30.5582 11.721C32.6389 11.721 34.3256 13.4077 34.3256 15.4884C34.3256 17.5691 32.6389 19.2559 30.5582 19.2559C28.4775 19.2559 26.7907 17.5691 26.7907 15.4884Z" fill="black"/>
<path fill-rule="evenodd" clip-rule="evenodd" d="M23.0233 14.2326C22.3297 14.2326 21.7675 14.7949 21.7675 15.4884C21.7675 16.182 22.3297 16.7442 23.0233 16.7442C23.7169 16.7442 24.2791 16.182 24.2791 15.4884C24.2791 14.7949 23.7169 14.2326 23.0233 14.2326ZM19.2559 15.4884C19.2559 13.4077 20.9426 11.721 23.0233 11.721C25.104 11.721 26.7907 13.4077 26.7907 15.4884C26.7907 17.5691 25.104 19.2559 23.0233 19.2559C20.9426 19.2559 19.2559 17.5691 19.2559 15.4884Z" fill="black"/>
<path fill-rule="evenodd" clip-rule="evenodd" d="M21.5123 0C22.2059 0 22.7682 0.562246 22.7682 1.25581V9.6279C22.7682 10.1474 22.4483 10.6132 21.9635 10.7999L17.6139 12.4743C16.9667 12.7235 16.24 12.4007 15.9908 11.7535C15.7416 11.1062 16.0644 10.3795 16.7116 10.1303L20.2565 8.76568V1.25581C20.2565 0.562246 20.8188 0 21.5123 0Z" fill="black"/>
</svg>
