<svg width="33" height="33" viewBox="0 0 33 33" fill="none" xmlns="http://www.w3.org/2000/svg">
<path fill-rule="evenodd" clip-rule="evenodd" d="M0 4.65385C0 2.0836 2.0836 0 4.65385 0H28.3462C30.9164 0 33 2.0836 33 4.65385V5.92308C33 6.62405 32.4317 7.19231 31.7308 7.19231C31.0298 7.19231 30.4615 6.62405 30.4615 5.92308V4.65385C30.4615 3.48555 29.5144 2.53846 28.3462 2.53846H4.65385C3.48555 2.53846 2.53846 3.48555 2.53846 4.65385V28.3462C2.53846 29.5144 3.48555 30.4615 4.65385 30.4615H28.3462C29.5144 30.4615 30.4615 29.5144 30.4615 28.3462V12.6923C30.4615 11.9913 31.0298 11.4231 31.7308 11.4231C32.4317 11.4231 33 11.9913 33 12.6923V28.3462C33 30.9164 30.9164 33 28.3462 33H4.65385C2.0836 33 0 30.9164 0 28.3462V4.65385Z" fill="black"/>
<path fill-rule="evenodd" clip-rule="evenodd" d="M16.5 8.03842C14.8644 8.03842 13.5384 9.36435 13.5384 11C13.5384 12.6356 14.8644 13.9615 16.5 13.9615C18.1356 13.9615 19.4615 12.6356 19.4615 11C19.4615 9.36435 18.1356 8.03842 16.5 8.03842ZM11 11C11 7.96239 13.4624 5.49996 16.5 5.49996C19.5375 5.49996 22 7.96239 22 11C22 14.0375 19.5375 16.5 16.5 16.5C13.4624 16.5 11 14.0375 11 11Z" fill="black"/>
<path fill-rule="evenodd" clip-rule="evenodd" d="M16.5 19.1442C12.5278 19.1442 9.30771 22.3643 9.30771 26.3365C9.30771 27.0375 8.73946 27.6057 8.03848 27.6057C7.33751 27.6057 6.76925 27.0375 6.76925 26.3365C6.76925 20.9623 11.1259 16.6057 16.5 16.6057C21.8742 16.6057 26.2308 20.9623 26.2308 26.3365C26.2308 27.0375 25.6625 27.6057 24.9616 27.6057C24.2606 27.6057 23.6923 27.0375 23.6923 26.3365C23.6923 22.3643 20.4722 19.1442 16.5 19.1442Z" fill="black"/>
</svg>
