<svg width="30" height="36" viewBox="0 0 30 36" fill="none" xmlns="http://www.w3.org/2000/svg">
<path fill-rule="evenodd" clip-rule="evenodd" d="M0 14.6511C0 12.1081 2.06157 10.0465 4.60465 10.0465H24.6976C27.2407 10.0465 29.3023 12.1081 29.3023 14.6511V31.3953C29.3023 33.9384 27.2407 36 24.6976 36H4.60465C2.06157 36 0 33.9384 0 31.3953V23.0232C0 22.3297 0.562246 21.7674 1.25581 21.7674C1.94938 21.7674 2.51163 22.3297 2.51163 23.0232V31.3953C2.51163 32.5513 3.4487 33.4883 4.60465 33.4883H24.6976C25.8536 33.4883 26.7907 32.5513 26.7907 31.3953V14.6511C26.7907 13.4952 25.8536 12.5581 24.6976 12.5581H4.60465C3.4487 12.5581 2.51163 13.4952 2.51163 14.6511V16.3256C2.51163 17.0191 1.94938 17.5814 1.25581 17.5814C0.562246 17.5814 0 17.0191 0 16.3256V14.6511Z" fill="black"/>
<path fill-rule="evenodd" clip-rule="evenodd" d="M9.06511 2.51163C7.90917 2.51163 6.97209 3.4487 6.97209 4.60464V11.1238C6.97209 11.8174 6.40984 12.3796 5.71628 12.3796C5.02271 12.3796 4.46046 11.8174 4.46046 11.1238V4.60464C4.46046 2.06157 6.52204 0 9.06511 0H19.8433C22.3864 0 24.4479 2.06157 24.4479 4.60465V11.1238C24.4479 11.8174 23.8857 12.3796 23.1921 12.3796C22.4986 12.3796 21.9363 11.8174 21.9363 11.1238V4.60465C21.9363 3.4487 20.9992 2.51163 19.8433 2.51163H9.06511Z" fill="black"/>
<path fill-rule="evenodd" clip-rule="evenodd" d="M14.6511 20.093C13.9575 20.093 13.3953 20.6552 13.3953 21.3488C13.3953 22.0424 13.9575 22.6046 14.6511 22.6046C15.3446 22.6046 15.9069 22.0424 15.9069 21.3488C15.9069 20.6552 15.3446 20.093 14.6511 20.093ZM10.8836 21.3488C10.8836 19.2681 12.5704 17.5814 14.6511 17.5814C16.7318 17.5814 18.4185 19.2681 18.4185 21.3488C18.4185 23.4295 16.7318 25.1163 14.6511 25.1163C12.5704 25.1163 10.8836 23.4295 10.8836 21.3488Z" fill="black"/>
<path fill-rule="evenodd" clip-rule="evenodd" d="M14.6511 22.6046C15.3446 22.6046 15.9069 23.1669 15.9069 23.8604V29.7209C15.9069 30.4145 15.3446 30.9767 14.6511 30.9767C13.9575 30.9767 13.3953 30.4145 13.3953 29.7209V23.8604C13.3953 23.1669 13.9575 22.6046 14.6511 22.6046Z" fill="black"/>
</svg>
