<svg width="33" height="30" viewBox="0 0 33 30" fill="none" xmlns="http://www.w3.org/2000/svg">
<path fill-rule="evenodd" clip-rule="evenodd" d="M0 4.65385C0 2.0836 2.0836 0 4.65385 0H28.3462C30.9164 0 33 2.0836 33 4.65385V28.3462C33 28.8142 32.7424 29.2443 32.3297 29.4652C31.917 29.6861 31.4162 29.6619 31.0267 29.4022L23.7311 24.5385H13.1154C12.4144 24.5385 11.8462 23.9702 11.8462 23.2692C11.8462 22.5683 12.4144 22 13.1154 22H24.1154C24.366 22 24.6109 22.0742 24.8194 22.2132L30.4615 25.9746V4.65385C30.4615 3.48555 29.5144 2.53846 28.3462 2.53846H4.65385C3.48555 2.53846 2.53846 3.48555 2.53846 4.65385V19.8846C2.53846 21.0529 3.48555 22 4.65385 22H6.34615C7.04713 22 7.61538 22.5683 7.61538 23.2692C7.61538 23.9702 7.04713 24.5385 6.34615 24.5385H4.65385C2.0836 24.5385 0 22.4549 0 19.8846V4.65385Z" fill="black"/>
<path fill-rule="evenodd" clip-rule="evenodd" d="M8.03846 11.8462C7.8048 11.8462 7.61538 12.0357 7.61538 12.2693C7.61538 12.503 7.8048 12.6924 8.03846 12.6924C8.27212 12.6924 8.46154 12.503 8.46154 12.2693C8.46154 12.0357 8.27212 11.8462 8.03846 11.8462ZM5.07692 12.2693C5.07692 10.6337 6.40285 9.30777 8.03846 9.30777C9.67407 9.30777 11 10.6337 11 12.2693C11 13.9049 9.67407 15.2309 8.03846 15.2309C6.40285 15.2309 5.07692 13.9049 5.07692 12.2693Z" fill="black"/>
<path fill-rule="evenodd" clip-rule="evenodd" d="M16.5 11.8462C16.2664 11.8462 16.077 12.0357 16.077 12.2693C16.077 12.503 16.2664 12.6924 16.5 12.6924C16.7337 12.6924 16.9231 12.503 16.9231 12.2693C16.9231 12.0357 16.7337 11.8462 16.5 11.8462ZM13.5385 12.2693C13.5385 10.6337 14.8644 9.30777 16.5 9.30777C18.1357 9.30777 19.4616 10.6337 19.4616 12.2693C19.4616 13.9049 18.1357 15.2309 16.5 15.2309C14.8644 15.2309 13.5385 13.9049 13.5385 12.2693Z" fill="black"/>
<path fill-rule="evenodd" clip-rule="evenodd" d="M24.9615 11.8462C24.7278 11.8462 24.5384 12.0357 24.5384 12.2693C24.5384 12.503 24.7278 12.6924 24.9615 12.6924C25.1952 12.6924 25.3846 12.503 25.3846 12.2693C25.3846 12.0357 25.1952 11.8462 24.9615 11.8462ZM22 12.2693C22 10.6337 23.3259 9.30777 24.9615 9.30777C26.5971 9.30777 27.923 10.6337 27.923 12.2693C27.923 13.9049 26.5971 15.2309 24.9615 15.2309C23.3259 15.2309 22 13.9049 22 12.2693Z" fill="black"/>
</svg>
