<svg width="24" height="24" viewBox="0 0 24 24" fill="none" xmlns="http://www.w3.org/2000/svg">
<g clip-path="url(#clip0_11802_4693)">
<path d="M12 0C9.62663 0 7.30655 0.703788 5.33316 2.02236C3.35977 3.34094 1.8217 5.21508 0.913451 7.4078C0.00519953 9.60051 -0.232441 12.0133 0.230582 14.3411C0.693605 16.6689 1.83649 18.807 3.51472 20.4853C5.19295 22.1635 7.33115 23.3064 9.65892 23.7694C11.9867 24.2324 14.3995 23.9948 16.5922 23.0865C18.7849 22.1783 20.6591 20.6402 21.9776 18.6668C23.2962 16.6934 24 14.3734 24 12C24 8.8174 22.7357 5.76515 20.4853 3.51472C18.2348 1.26428 15.1826 0 12 0ZM12.5144 7.3712C13.6052 7.37247 14.651 7.80636 15.4223 8.57768C16.1936 9.34901 16.6275 10.3948 16.6288 11.4856H15.6C15.5992 10.6675 15.2738 9.88316 14.6953 9.30468C14.1168 8.72621 13.3325 8.40085 12.5144 8.4V7.3712ZM15.8464 19.2C15.8152 19.2 12.7264 19.1472 8.7544 15.2456C4.8528 11.2752 4.8 8.1848 4.8 8.1536C4.8 7.7688 7.2 4.8 7.7304 4.8C7.9144 4.8 8.0576 4.9248 8.2144 5.112C8.592 5.5616 10.2616 8.1968 10.1848 8.636C10.148 8.8424 9.9728 8.9992 9.4704 9.4208C9.22285 9.61541 8.99119 9.82942 8.7776 10.0608C8.87989 10.4842 9.03188 10.8939 9.2304 11.2816C9.97003 12.8023 11.1989 14.0307 12.72 14.7696C13.1077 14.9681 13.5174 15.1201 13.9408 15.2224C14.1722 15.0088 14.3862 14.7771 14.5808 14.5296C15.0024 14.0272 15.1592 13.852 15.3656 13.8152C15.8048 13.7352 18.44 15.408 18.8896 15.7856C19.0768 15.9456 19.2016 16.0856 19.2016 16.2696C19.2 16.8 16.2312 19.2 15.8464 19.2ZM18.1712 11.4856C18.1695 9.98584 17.573 8.548 16.5125 7.48751C15.452 6.42702 14.0142 5.83049 12.5144 5.8288V4.8C14.2869 4.80212 15.9862 5.50717 17.2395 6.7605C18.4928 8.01384 19.1979 9.71312 19.2 11.4856H18.1712Z" fill="white"/>
</g>
<defs>
<clipPath id="clip0_11802_4693">
<rect width="24" height="24" fill="white"/>
</clipPath>
</defs>
</svg>
